<svg version="1" xmlns="http://www.w3.org/2000/svg" width="1114.667" height="1114.667" viewBox="0 0 836.000000 836.000000"><path d="M307.6 54.5c-1.2.9-4.2 1.5-7.2 1.5-2.9 0-5.5.4-5.9.9-.3.5-3 1.3-6 1.6-3.1.4-5.8 1.1-6.1 1.6-.3.5-2.3.9-4.4.9-2.1 0-4.2.4-4.5 1-.3.5-2.4 1-4.5 1s-4.1.4-4.4.9c-.3.5-1.8 1.1-3.3 1.4-3 .5-8.7 2.4-11.5 3.8-1 .5-2.7.9-3.8.9-2 0-2.6.2-8.8 3.3-1.9.9-4.2 1.7-5.3 1.7-1 0-1.9.4-1.9 1 0 .5-.9 1-2 1s-2.8.4-3.8.9c-.9.5-4.4 2.1-7.7 3.6s-6.8 3.1-7.7 3.6c-1 .5-2.4.9-3.2.9-.8 0-1.6.4-1.8.8-.2.6-9 5.4-19.5 10.6-1.3.6-2.3 1.4-2.3 1.8 0 .5-.5.8-1 .8-.6 0-3.6 1.6-6.6 3.5-3 1.9-5.9 3.5-6.4 3.5-.6 0-1 .4-1 1 0 .5-.4 1-.9 1-1.9 0-27.8 18.9-37.3 27.2-3.4 2.9-7.9 6.9-10.1 8.8-7.2 6.2-21.1 20.3-29.3 29.5-4.3 4.9-8.1 9.2-8.4 9.5-.3.3-1.8 2.3-3.5 4.5-1.6 2.2-3.2 4.2-3.6 4.5-1.3 1-19.9 28.1-19.9 29 0 .6-.3 1-.7 1-.5 0-1.3 1-1.9 2.3-1.8 3.6-4.9 9.2-5.4 9.7-1.8 1.7-17.1 32.9-21.2 43-.6 1.4-1.4 3.3-1.9 4.2-.5 1-.9 2.4-.9 3.2 0 .8-.8 2.9-1.7 4.8-3.1 6.2-3.3 6.8-3.3 9.3 0 1.4-.4 2.5-1 2.5-.5 0-1 1.5-1 3.4s-.5 3.6-1 3.8c-.6.2-1.2 1.8-1.4 3.5-.3 1.8-.8 3.8-1.2 4.4-.7 1.3-1.8 5.7-3.4 13.9-.4 2.5-1.6 7.4-2.5 11-.9 3.6-1.9 9-2.2 12-.3 3-1.1 6.4-1.9 7.5-1.9 2.7-2.1 107.4-.2 109.3.7.7 1.6 4.1 2 7.5.3 3.4 1.4 9.1 2.3 12.7 1.5 6 2.2 9.2 4.1 19 .4 1.9 1 4 1.5 4.6.5.6 1.1 2.8 1.5 5 .3 2.1 1 4.1 1.5 4.2.5.2.9 1.7.9 3.2 0 1.6.5 3.2 1 3.5.6.3 1 1.7 1 3.1 0 1.3.4 3.2.9 4.2.4.9 1.6 3.5 2.6 5.7.9 2.2 2.1 4.8 2.6 5.7.5 1 .9 2.5.9 3.3 0 1.4.9 3.5 3.2 7.5.4.8 1.1 2.2 1.4 3 1 2.6 7.5 16.3 9.9 21 5.9 11.6 7.1 13.5 7.8 13.8.4.2.7.8.7 1.3 0 .6 1.6 3.5 3.5 6.5s3.5 5.8 3.5 6.2c0 .4 1.1 1.9 2.5 3.4s2.5 3 2.5 3.3c0 .6 8.3 12.6 10.5 15.2.5.7 1.5 1.8 2 2.5.6.8 3.2 4.3 6 7.8 2.7 3.6 5.2 6.7 5.5 7 .3.3 4.1 4.5 8.5 9.5 8.6 9.7 18.8 19.9 27.4 27.3 2.9 2.6 6.6 5.9 8.1 7.3 1.5 1.4 4.3 3.7 6.1 5 1.9 1.3 4.1 3.1 5 3.9 4.8 4.5 22.3 17 23.8 17 .6 0 1.1.4 1.1 1 0 .5.5 1 1.1 1 .6 0 2.5 1.1 4.3 2.5 1.8 1.4 3.8 2.5 4.4 2.5.7 0 1.2.4 1.2.9s.8 1.1 1.8 1.4c1.9.6 9.4 4.9 10.2 5.8.3.3 2.4 1.4 4.8 2.4 2.3 1.1 4.2 2.2 4.2 2.7 0 .4.9.8 2 .8s2 .4 2 1c0 .5.8 1 1.8 1.1.9 0 3.1.9 4.7 2 1.7 1 3.7 2.1 4.5 2.5 4.4 1.7 6.7 2.7 8.2 3.5 1 .5 2.4.9 3.2.9.7 0 1.9.7 2.6 1.5.7.8 2.1 1.5 3.1 1.5 1.1 0 2.9.5 4.2 1.2 4.7 2.4 5.7 2.8 7.5 2.8 1 0 2.7.7 3.8 1.5 1 .8 2.9 1.5 4.1 1.5 1.2 0 2.5.4 2.8 1 .3.5 1.9 1 3.5 1s3.2.4 3.5 1c.3.5 1.7 1 2.9 1 1.3 0 3.7.7 5.2 1.5 1.6.8 4.1 1.5 5.6 1.5s3 .4 3.3 1c.3.5 2.4 1 4.5 1s4.2.5 4.5 1c.3.6 2.8 1 5.4 1 2.6 0 5.1.3 5.5.8 1 1 13.5 3.2 23.1 4 4.4.4 9 1.3 10.2 2 1.7.9 24.4 1.2 101 1.2 85.3-.1 99.1-.3 100.7-1.5 1.2-.9 4.2-1.5 7.2-1.5 2.9 0 5.5-.4 5.9-.9.3-.5 3-1.3 6-1.6 3.1-.4 5.8-1.1 6.1-1.6.3-.5 2.5-.9 4.9-.9 2.4 0 4.7-.4 5-1 .3-.5 2.1-1 4-1s3.6-.4 3.9-.9c.3-.5 1.8-1.1 3.3-1.4 3-.5 8.7-2.4 11.5-3.8 1-.5 2.7-.9 3.8-.9 1.1 0 2.8-.4 3.8-.9.9-.4 3.5-1.6 5.7-2.6 2.2-.9 4.8-2.1 5.7-2.6 1-.5 2.5-.9 3.3-.9.8 0 2.3-.4 3.3-.9.9-.5 4.4-2.1 7.7-3.6s6.8-3.1 7.7-3.6c1-.5 2.4-.9 3.2-.9.8 0 1.6-.4 1.8-.8.2-.4 3.9-2.6 8.3-4.8 8.6-4.3 12.7-6.6 13.5-7.4.9-.9 8.5-5.1 10.3-5.7.9-.3 1.7-.9 1.7-1.4 0-.5.5-.9 1-.9 1 0 24.5-16.2 29.9-20.6 3.1-2.4 16.5-13.9 21-17.9 7.2-6.4 21.1-20.4 28.7-29 4.3-5 8.1-9.2 8.4-9.5.3-.3 1.8-2.3 3.5-4.5 1.6-2.2 3.8-4.9 4.8-6 1-1.1 2.6-3.2 3.5-4.8.9-1.5 2-2.7 2.4-2.7.4 0 .8-.4.8-1 0-.5 2.7-4.8 6-9.5s6-9 6-9.5c0-.6.5-1 1-1 .6 0 1-.5 1-1.2 0-.6 1.1-2.6 2.5-4.4 1.4-1.8 2.5-4 2.5-4.8 0-.9.3-1.6.8-1.6.4 0 1.2-1 1.8-2.3 3.5-7.2 9.8-18.8 10.5-19.3.5-.3.9-1.2.9-2 0-.9 1.6-5 3.6-9.2 1.9-4.2 4-8.8 4.6-10.2.6-1.4 1.4-3.3 1.9-4.2.5-1 .9-2.4.9-3.2 0-.8.8-2.9 1.7-4.8 3.1-6.2 3.3-6.8 3.3-9.3 0-1.4.5-2.5 1-2.5.6 0 1-1.5 1-3.4s.5-3.6 1-3.8c.6-.2 1.2-1.7 1.5-3.3.2-1.7.8-4.4 1.4-6 2.4-7.5 3.1-10.3 3.1-12.5 0-1.3.4-3.7.9-5.4 3.2-10.5 4.1-14.8 4.1-18.7 0-2.4.7-5.3 1.5-6.3 1.3-1.7 1.5-9.9 1.5-55.1 0-40.7-.3-53.4-1.2-54.3-.7-.7-1.6-4.1-2-7.5-.3-3.4-1.4-9.1-2.3-12.7-1.5-6-2.2-9.2-4.1-19-.4-1.9-1-4-1.5-4.6-.5-.6-1.1-2.8-1.5-5-.3-2.1-1-4.1-1.5-4.2-.5-.2-.9-1.7-.9-3.2 0-1.6-.4-3.2-1-3.5-.5-.3-1-1.7-1-3.1 0-1.3-.4-3.2-1-4.2-.5-.9-1.6-3.5-2.5-5.7-.9-2.2-2.1-4.8-2.6-5.7-.5-1-.9-2.5-.9-3.3 0-1.4-.9-3.5-3.2-7.5-.4-.8-1.1-2.2-1.4-3-1.5-4-2.8-6.8-4.2-9.5-.9-1.7-1.9-3.7-2.2-4.5-.9-1.8-5-9.9-8.2-16-1.2-2.5-2.6-4.7-3-4.8-.5-.2-.8-.8-.8-1.3 0-.6-1.6-3.5-3.5-6.5s-3.5-5.6-3.5-5.9c0-.5-13.7-20.1-15.5-22.2-.5-.7-1.4-1.8-2-2.5-8.8-11.5-11.6-15-15-18.8-14.5-16.1-22.6-24.3-32.4-32.8-2.9-2.6-6.6-5.9-8.1-7.3-1.5-1.4-4.3-3.7-6.1-5-1.9-1.3-4.1-3.1-5-3.9-4.8-4.5-22.3-17-23.8-17-.6 0-1.1-.5-1.1-1 0-.6-.5-1-1.1-1-.6 0-2.5-1.1-4.3-2.5-1.8-1.4-3.8-2.5-4.4-2.5-.7 0-1.2-.4-1.2-.9s-.8-1.1-1.7-1.4c-1.9-.6-9.5-4.8-10.3-5.8-.3-.3-2.2-1.3-4.2-2.2-2-1-4-2.2-4.3-2.7-.3-.6-1.5-1-2.6-1-1 0-1.9-.5-1.9-1 0-.6-.8-1-1.7-1.1-1 0-3.1-.9-4.8-2-1.6-1-3.7-2.1-4.5-2.5-4.4-1.7-6.7-2.7-8.2-3.5-1-.5-2.4-.9-3.2-.9-.7 0-1.9-.7-2.6-1.5-.7-.8-2.1-1.5-3.1-1.5-1.1 0-2.8-.5-3.9-1-1.1-.6-2.9-1.5-4-2-1.1-.6-2.8-1-3.8-1s-2.7-.7-3.8-1.5c-1-.8-2.9-1.5-4.1-1.5-1.2 0-2.5-.5-2.8-1-.3-.6-1.9-1-3.5-1s-3.2-.5-3.5-1c-.3-.6-1.7-1-2.9-1-1.3 0-3.7-.7-5.2-1.5-1.6-.8-4.1-1.5-5.6-1.5s-3-.5-3.3-1c-.3-.6-2.4-1-4.5-1s-4.2-.5-4.5-1c-.3-.6-2.8-1-5.4-1-2.6 0-5.1-.3-5.5-.8-1-1-13.5-3.2-23.1-4-4.4-.4-9-1.3-10.2-2-3.4-1.9-68.9-1.6-72.3.3-3.6 2-18.3 2-20 0-1.9-2.2-106.5-2.2-109.4 0zm84.9 4.4c12.6.6 14.4 1.4 6 2.5-10.2 1.4-12.6 1.9-13.1 2.7-.3.5-2.4.9-4.7.9-2.3.1-6 .7-8.2 1.5-2.2.8-6.1 1.5-8.7 1.5-2.6 0-5 .4-5.3 1-.3.5-2.6 1-5 1s-4.7.4-5 1c-.3.5-1.9 1-3.4 1s-3.6.7-4.7 1.5c-1 .8-3.3 1.5-5.1 1.5-1.7 0-3.5.4-3.8 1-.3.5-1.9 1-3.6 1-1.6 0-2.9.4-2.9 1 0 .5-1.3 1-2.9 1-1.6 0-3.4.7-4.1 1.5-.7.8-2.1 1.5-3.1 1.5-1.1 0-2.7.4-3.7.9-.9.5-2.8 1.3-4.2 1.9-3.1 1.2-12.7 5.6-20 9.1-3 1.4-5.6 2.9-5.8 3.3-.2.5-1.2.8-2.3.8-1 0-1.9.4-1.9 1 0 .5-.9 1-2 1s-2 .4-2 .8c0 .5-1.8 1.7-4 2.8-2.2 1-4 2.2-4 2.6 0 .5-.5.8-1.2.8-.6 0-2.6 1.1-4.4 2.5-1.8 1.4-3.6 2.5-3.9 2.5-.9 0-16.5 10.8-18.6 12.9-.9.9-4 3.4-6.9 5.6-12.6 9.7-31.2 28.2-44.4 44-8.1 9.9-8.3 10.1-9.5 12.3-.6 1.1-1.7 2.6-2.4 3.4-1.9 1.9-8.7 11.7-8.7 12.4 0 .4-1.5 2.7-3.3 5.3-1.8 2.5-4.3 6.7-5.6 9.4-1.3 2.6-3 5.2-3.8 5.8-.7.6-1.3 2-1.3 3 0 1.1-.4 1.9-1 1.9-.5 0-1 .8-1.1 1.7 0 1-.9 3.1-2 4.8-1 1.6-2.1 3.7-2.5 4.5-.3.8-.9 2.4-1.4 3.5-.4 1.1-1.9 4.4-3.4 7.3-1.4 3-2.6 6.2-2.6 7.2 0 1.1-.4 2.2-1 2.5-.5.3-1 1.7-1 3.1 0 1.3-.4 2.4-1 2.4-.5 0-1 1.3-1 2.9 0 1.6-.7 3.4-1.5 4.1-.8.7-1.5 2.5-1.5 4.1 0 1.5-.4 3-.9 3.3-.5.3-1.1 2-1.4 3.8-1.1 6.3-2.4 11.3-3.5 13.5-.7 1.2-1.2 3.7-1.2 5.7 0 1.9-.4 3.8-1 4.1-.5.3-1 3-1 6s-.4 5.7-1 6c-.5.3-1 3.4-1 6.8s-.5 7.8-1.1 9.7c-1 3.4-2.5 12.1-3.5 21-.3 2.5-.9 5.4-1.4 6.5-.5 1.1-1.1 5.4-1.4 9.5-.3 4.1-.9 10-1.5 13-1.3 7.2-1.3 61.1 0 67.5.6 2.7 1.2 8.4 1.5 12.5.3 4.1.9 8.4 1.4 9.5 1.1 2.6 1.8 8.1 2.9 23 .4 6.6 1.3 13.3 2 14.8.6 1.6 1.1 5.7 1.1 9.2 0 3.5.5 6.7 1 7 .6.3 1 3 1 6s.5 5.7 1 6c.6.3 1 2.3 1 4.3 0 2.1.6 4.6 1.4 5.7.7 1.1 1.6 3.6 1.9 5.5.4 1.9.9 5.2 1.3 7.3.3 2 1 4 1.5 4.3.5.3.9 1.5.9 2.8 0 1.2.7 3.1 1.5 4.2.8 1 1.5 2.8 1.5 4 0 1.1.3 2.4.7 2.8 1 .9 3.3 7.8 3.3 9.8 0 1 .3 1.8.8 1.8.4 0 1.5 2.1 2.5 4.8 1 2.6 2.3 5.5 2.8 6.4.5 1 .9 2.3.9 2.9 0 .6.7 1.7 1.5 2.6.8.8 1.3 1.9.9 2.4-.3.5.2 1.2 1 1.5.9.3 1.6 1.2 1.6 2 0 1.4 1.6 4.6 3.6 7.4.6.8 2.8 4.6 4.9 8.5 2.1 3.8 5.7 9.8 8.1 13.3 2.4 3.5 4.4 6.6 4.4 7.1 0 .4.8 1.6 1.8 2.7.9 1 3 3.7 4.6 5.9 1.7 2.2 3.3 4.2 3.6 4.5.3.3 1.9 2.3 3.6 4.5 6.2 8.5 32.5 35.5 41.3 42.5 2.4 1.9 6 4.8 8 6.5 2.1 1.6 5.4 4.1 7.4 5.5 2 1.4 3.7 2.8 3.7 3.2 0 .5.7.8 1.5.8s1.5.4 1.5 1c0 .5.5 1 1.1 1 .6 0 1.7.6 2.4 1.2 3 2.7 4.4 3.8 4.9 3.8.3 0 3 1.6 6 3.5s5.9 3.5 6.5 3.5c.5 0 1.1.3 1.3.7.5 1.1 23.4 13.1 31.8 16.5 4.7 2 9.5 4.1 11.2 4.9 1 .5 2.7.9 3.7.9 1.1 0 2.3.5 2.6 1 .3.5 1.6 1 2.8 1 1.2 0 3.1.7 4.1 1.5 1.1.8 3 1.5 4.2 1.5 1.3 0 2.6.4 2.9 1 .3.5 2.2 1 4.1 1 1.9 0 3.4.4 3.4 1 0 1.6-16.2 1.2-21-.5-2.3-.8-6.9-1.5-10.1-1.5-3.2 0-6.1-.5-6.4-1-.3-.6-3-1-6-1s-5.7-.5-6-1c-.3-.6-2.3-1-4.3-1-2-.1-4.8-.7-6.2-1.5-1.4-.8-3.9-1.4-5.7-1.5-1.7 0-3.5-.5-3.8-1-.3-.6-2.1-1-4-1s-3.7-.5-4-1c-.3-.6-1.9-1-3.4-1s-3.6-.7-4.7-1.5c-1-.8-2.9-1.5-4.1-1.5-1.2 0-2.5-.5-2.8-1-.3-.6-1.7-1-3.1-1-1.3 0-3.2-.4-4.2-.9-.9-.5-2.8-1.3-4.2-1.9-6.4-2.7-10.7-4.5-12.7-5.3-1.3-.5-3.3-1.3-4.5-1.8-1.3-.5-3-1.2-3.8-1.5-.8-.3-2.2-1-3-1.5-.8-.5-4.1-2.1-7.2-3.6-3.2-1.4-6-3-6.3-3.6-.4-.5-1.5-.9-2.6-.9-1 0-1.9-.3-1.9-.8 0-.4-1.9-1.6-4.1-2.7-6.7-3.2-7.9-3.9-7.9-4.7 0-.5-.9-.8-2-.8s-2-.5-2-1c0-.6-.5-1-1.1-1-.6 0-2.5-1.1-4.3-2.5-1.8-1.4-3.8-2.5-4.4-2.5-.7 0-1.2-.5-1.2-1 0-.6-.4-1-1-1-1.2 0-15.4-10-15.8-11.2-.2-.4-.8-.8-1.3-.8s-1.7-.6-2.6-1.4c-1-.8-3.8-3.1-6.3-5.2-17.7-14.4-34-29.9-44.1-41.9-1.9-2.2-4.1-4.7-4.9-5.5-2.1-2-12.9-15.6-16-20-1.3-1.9-2.7-3.7-3-4-.4-.3-1.5-2-2.5-3.7-1.1-1.8-2.3-3.3-2.7-3.3-.4 0-.8-.5-.8-1.1 0-.6-1.6-3.3-3.5-5.9-1.9-2.6-3.5-5.3-3.5-5.9 0-.6-.4-1.1-.9-1.1s-1.1-.8-1.5-1.8c-.3-.9-1.7-3.5-3.1-5.7-1.3-2.2-3.5-6-4.7-8.5-1.3-2.5-2.6-4.7-3-4.8-.5-.2-.8-.9-.8-1.6 0-1.6-4.9-11.4-6.1-12.2-.5-.3-.9-1.4-.9-2.5 0-1-.4-1.9-1-1.9-.5 0-1-1.1-1-2.5s-.4-2.5-1-2.5c-.5 0-1-.6-1-1.4 0-.8-.6-2.7-1.4-4.3-.8-1.5-1.9-3.9-2.4-5.3s-1.5-3.8-2.1-5.3c-.6-1.5-1.1-3.7-1.1-4.7 0-1.1-.4-2-1-2-.5 0-1.2-1.6-1.6-3.5-.3-1.9-1-3.8-1.5-4.1-.5-.3-.9-1.8-.9-3.5 0-1.6-.4-2.9-1-2.9-.5 0-1-1.2-1-2.6 0-2.9-2.8-12.4-4.1-13.9-.5-.5-.9-2.5-.9-4.5s-.4-4-.9-4.6c-.5-.5-1.1-2.7-1.5-4.9-1.6-11.7-2.4-16.4-3.2-17.6-1.7-2.8-4.7-41.8-4.7-60.4.1-18.4 3.1-55.8 4.7-58.3.8-1.4 2.2-9.1 3.3-18.5.3-2.6.9-4.7 1.4-4.7.5 0 .9-1.7.9-3.8 0-2.1.4-4.2.9-4.8 1-.9 2.9-7.6 3.8-13.2.3-1.8.9-3.5 1.4-3.8.5-.3.9-1.6.9-2.9 0-1.3.5-2.7 1-3 .6-.3 1-1.4 1-2.3 0-.9.7-3 1.5-4.6.8-1.5 1.5-3.7 1.5-4.7s.5-2.1 1-2.4c.6-.3 1-1.7 1-3.1 0-1.3.5-2.4 1-2.4.6 0 1-.7 1-1.5 0-1.8 3.2-8.9 4.3-9.3.4-.2.7-1.5.7-2.8 0-1.3.5-2.4 1-2.4.6 0 1-.8 1-1.9 0-1 .7-2.4 1.5-3.1.8-.7 1.3-1.6 1-2-.3-.4.2-1.3 1-2s1.5-2.1 1.5-3.1c0-1.1.5-1.9 1-1.9.6 0 1-.7 1-1.5 0-.9 1-3.2 2.3-5.3 1.3-2 2.6-4.4 3-5.2.4-.8 1.8-3.3 3.2-5.5 1.4-2.2 2.8-4.7 3.2-5.5 1.4-3 9.7-15.5 10.5-15.8.4-.2.8-.8.8-1.3 0-.6.5-1.5 1-2.2.6-.7 2.9-3.7 5.1-6.7 2.2-3 4.8-6.4 5.7-7.5.9-1.1 3-3.8 4.6-6 1.7-2.2 3.7-4.7 4.6-5.5.8-.8 4-4.4 7-8 10-11.9 29.4-30.3 42.5-40.5 2.1-1.7 4.3-3.5 4.9-4 3.4-3.2 19.5-14.2 37.1-25.2 1.1-.7 3.6-2 5.5-3 1.9-.9 3.7-2 4-2.3.3-.4 1.2-1 2-1.3.8-.4 2.9-1.6 4.5-2.6 1.7-1.1 3.8-2 4.8-2 .9-.1 1.7-.6 1.7-1.1 0-.6.8-1 1.9-1 1 0 2.4-.7 3.1-1.5.7-.8 1.8-1.5 2.5-1.5s3.3-1 5.7-2.1c2.3-1.2 5.2-2.5 6.3-3 5-2 10.2-4.1 11.7-5 1-.5 2.7-.9 3.7-.9 1.1 0 2.3-.5 2.6-1 .3-.6 1.6-1 2.8-1 1.2 0 3.1-.7 4.1-1.5 1.1-.8 3-1.5 4.2-1.5 1.3 0 2.6-.5 2.9-1 .3-.6 2.1-1 4-1s3.7-.5 4-1c.3-.6 1.9-1 3.4-1s3.6-.7 4.7-1.5c1-.8 3.6-1.5 5.6-1.5 2 0 4-.5 4.3-1 .3-.6 2.6-1 5-1s4.7-.5 5-1c.3-.6 2.6-1 5.1-1 2.5 0 5.5-.6 6.7-1.2 2.6-1.5 12.2-2.6 31.4-3.6 7.8-.5 14.6-1.2 15-1.6.7-.8 9.2-.5 43.8 1.3zm108.5 2c8 .4 15.8 1.3 17.3 1.9 1.6.7 5.5 1.2 8.7 1.2 3.2 0 6.2.4 6.5 1 .3.5 3 1 6 1s5.7.4 6 1c.3.5 2.3 1 4.3 1 2 .1 4.8.7 6.2 1.5 1.4.8 3.9 1.4 5.7 1.5 1.7 0 3.5.4 3.8 1 .3.5 2.1 1 4 1s3.7.4 4 1c.3.5 1.9 1 3.4 1s3.6.7 4.7 1.5c1 .8 2.9 1.5 4.1 1.5 1.2 0 2.5.4 2.8 1 .3.5 1.9 1 3.6 1 1.6 0 2.9.4 2.9 1 0 .5.9 1 2 1s2.8.4 3.8 1c1.6.9 7.3 3.3 11.7 5 1.1.4 3.1 1.2 4.5 1.8 1.4.5 3.2 1.3 4 1.6.8.3 2.2 1 3 1.5.8.5 4.1 2.1 7.2 3.6 3.2 1.4 6 3 6.3 3.6.4.5 1.5.9 2.6.9 1 0 1.9.3 1.9.8 0 .4 1.9 1.6 4.1 2.7 6.7 3.2 7.9 3.9 7.9 4.7 0 .5.9.8 2 .8s2 .4 2 1c0 .5.5 1 1.1 1 .6 0 2.5 1.1 4.3 2.5 1.8 1.4 3.8 2.5 4.4 2.5.7 0 1.2.4 1.2 1 0 .5.4 1 1 1 1.2 0 15.4 10 15.8 11.2.2.4.8.8 1.3.8s1.7.6 2.6 1.4c1 .8 3.8 3.1 6.3 5.2 8.9 7.2 17.5 14.8 29.8 26.4 2.1 1.9 10.7 11.2 18.9 20.5 6.4 7.2 9.9 11.7 15.5 19.5 1.7 2.5 3.5 4.7 3.8 5 .4.3 1.5 2 2.5 3.7 1.1 1.8 2.3 3.3 2.7 3.3.4 0 .8.5.8 1.1 0 .6 1.6 3.3 3.5 5.9 1.9 2.6 3.5 5.3 3.5 5.9 0 .6.4 1.1.9 1.1s1.1.8 1.5 1.7c.3 1 1.7 3.6 3.1 5.8 1.3 2.2 3.5 6 4.7 8.5 1.3 2.5 2.6 4.6 3.1 4.8.4.2.7.9.7 1.6 0 1.6 4.9 11.4 6.1 12.2.5.3.9 1.4.9 2.5 0 1 .5 1.9 1 1.9.6 0 1 1.1 1 2.5s.5 2.5 1 2.5c.6 0 1 .6 1 1.4 0 .8.6 2.7 1.4 4.3.8 1.5 1.9 3.9 2.4 5.3s1.5 3.8 2.1 5.3c.6 1.5 1.1 3.7 1.1 4.7 0 1.1.4 2 1 2 .5 0 1.2 1.6 1.6 3.5.3 1.9 1 3.8 1.5 4.1.5.3.9 1.8.9 3.5 0 1.6.5 2.9 1 2.9.6 0 1 1.2 1 2.6 0 2.9 2.8 12.4 4.1 13.8.5.6.9 2.6.9 4.6 0 2 .4 4 .9 4.6.5.5 1.1 2.7 1.5 4.9 1.6 11.7 2.4 16.4 3.2 17.6 1.7 2.8 4.7 40.1 4.7 59.4 0 19-3 56.7-4.7 59.3-.8 1.3-1.6 5.8-3.2 17.7-.4 2.2-1 4.4-1.5 4.9-.5.6-.9 2.6-.9 4.6 0 2-.4 4-.9 4.5-1 1-2.9 7.7-3.8 13.3-.3 1.8-.9 3.5-1.4 3.8-.5.3-.9 1.6-.9 2.9 0 1.3-.4 2.7-1 3-.5.3-1 1.4-1 2.3 0 .9-.7 3-1.5 4.6-.8 1.5-1.5 3.7-1.5 4.7s-.4 2.1-1 2.4c-.5.3-1 1.7-1 3.1 0 1.3-.4 2.4-1 2.4-.5 0-1 .7-1 1.6 0 .9-.7 3-1.6 4.7-3.1 5.8-3.4 6.7-3.4 8.2 0 .8-.4 1.5-1 1.5-.5 0-1 .8-1 1.9 0 1-.7 2.4-1.5 3.1-.8.7-1.3 1.6-1 2 .3.4-.2 1.3-1 2s-1.5 2.1-1.5 3.1c0 1.1-.4 1.9-1 1.9-.5 0-1 .8-1.1 1.7 0 1-.9 3.1-1.9 4.8-1 1.6-3.1 5.2-4.5 8-1.5 2.7-3.3 5.7-4.1 6.6-.8.8-1.4 1.8-1.4 2.2 0 1-9.3 15.2-10.2 15.5-.4.2-.8.8-.8 1.4 0 .5-.6 1.6-1.2 2.3-.7.8-2.4 3-3.8 5-3.5 5.1-14.2 18.7-16 20.5-.8.8-4 4.4-7 8-3 3.6-9.3 10.3-14 15-7.3 7.3-11.1 10.8-23 21-1 .8-3.4 2.8-5.5 4.5-2 1.6-4.2 3.5-4.9 4-4 3.7-19.8 14.4-37.1 25.2-1.1.7-3.6 2-5.5 3-1.9.9-3.7 2-4 2.3-.3.4-1.2 1-2 1.3-.8.4-2.8 1.6-4.5 2.6-1.6 1.1-3.8 2-4.7 2-1 .1-1.8.5-1.8 1.1 0 .5-.8 1-1.9 1-1 0-2.4.7-3.1 1.5-.7.8-1.8 1.5-2.5 1.5s-3.3 1-5.7 2.1c-2.3 1.2-5.2 2.5-6.3 3-5 2-10.2 4.1-11.7 5-1 .5-2.7.9-3.7.9-1.1 0-2.3.5-2.6 1-.3.6-1.6 1-2.8 1-1.2 0-3.1.7-4.1 1.5-1.1.8-3 1.5-4.2 1.5-1.3 0-2.6.4-2.9 1-.3.5-2.1 1-4 1s-3.7.4-4 1c-.3.5-1.8 1-3.3 1-1.5 0-3.6.7-4.6 1.5-1.1.8-3.7 1.5-5.7 1.5-2.1 0-4.1.4-4.4 1-.3.5-2.6 1-5 1s-4.7.5-5 1c-.3.6-2.6 1-5.1 1-2.5 0-5.5.6-6.7 1.2-4 2.3-40.5 4.9-39.2 2.9.3-.6 2.4-1.1 4.6-1.1 2.1 0 3.9-.5 3.9-1 0-.6 1.5-1 3.4-1s3.8-.4 4.1-1c.3-.5 1.6-1 2.9-1 1.2 0 3.1-.7 4.2-1.5 1-.8 2.9-1.5 4.1-1.5 1.2 0 2.5-.5 2.8-1 .3-.6 1.5-1 2.6-1 1 0 2.7-.4 3.7-.9.9-.4 3.5-1.6 5.7-2.6 2.2-.9 4.8-2.1 5.7-2.6 1-.5 2.5-.9 3.3-.9.8 0 1.5-.5 1.5-1 0-.6.6-1 1.3-1 .7 0 5-2 9.7-4.4 4.7-2.5 10.2-5.3 12.3-6.3 2-1 3.7-2.1 3.7-2.5 0-.5.6-.8 1.3-.8.6 0 5.2-2.7 10.1-6 4.9-3.3 9.3-6 9.8-6 .4 0 .8-.5.8-1 0-.6.7-1 1.5-1s1.5-.3 1.5-.8c0-.4 1.7-1.8 3.7-3.2 2-1.4 4.1-3 4.7-3.5.6-.6 2.9-2.4 5.1-4 11.8-8.8 37.9-35.1 47.7-48 1.2-1.7 2.5-3.2 2.8-3.5.3-.3 2.3-3 4.5-6s4.3-5.7 4.7-5.8c.5-.2.8-.8.8-1.4 0-.5 1.1-2.4 2.5-4.2 1.4-1.8 2.5-3.8 2.5-4.4 0-.7.4-1.2.9-1.2s1.6-1.5 2.5-3.2c.9-1.8 2.8-5.1 4.2-7.3 1.3-2.2 2.9-4.9 3.4-6 .6-1.1 1.9-3.4 2.9-5 1.1-1.7 2-3.8 2-4.8.1-.9.6-1.7 1.1-1.7.6 0 1-.9 1-1.9 0-1.1.4-2.2.9-2.6 1.1-.6 4.1-6.3 4.1-7.7 0-.5 1.1-3.3 2.4-6.1 1.3-2.9 3-7 3.7-9.2.7-2.2 1.7-4.4 2.1-5 .4-.5.8-1.8.8-3 0-1.1.7-2.9 1.5-3.9.8-1.1 1.5-3 1.5-4.2 0-1.3.5-2.6 1-2.9.6-.3 1-2.1 1-4s.5-3.7 1-4c.6-.3 1-1.9 1-3.4 0-1.6.7-4.2 1.5-5.7.8-1.6 1.5-4.3 1.5-6.1 0-1.7.4-3.5 1-3.8.6-.3 1-3 1-6s.5-5.7 1-6c.6-.3 1-3.4 1-6.8s.7-8.4 1.5-11c1.2-4.1 1.4-17.8 1.4-87 0-57.2-.3-83.4-1.1-86.2-.6-2.2-1.3-7.2-1.5-11-.3-3.9-.9-7.4-1.4-8-.5-.5-.9-3.3-.9-6.1 0-2.9-.4-5.6-1-5.9-.5-.3-1-2-1-3.7 0-1.6-.6-4.4-1.4-6.1-1.4-3.1-2.1-6.3-3.3-14-.3-2-.9-3.7-1.4-3.7-.5 0-.9-1.3-.9-2.9 0-1.6-.7-3.4-1.5-4.1-.8-.7-1.5-2.5-1.5-4.1 0-1.6-.4-2.9-1-2.9-.5 0-1-1.1-1-2.4 0-1.4-.4-2.8-1-3.1-.5-.3-1-1.7-1-2.9 0-1.3-.7-2.9-1.5-3.6-.8-.7-1.5-1.9-1.5-2.6 0-.8-.4-2.2-.9-3.2-.8-1.5-1.8-3.8-3.5-8.2-.4-.8-1.5-2.9-2.5-4.5-1.1-1.7-2-3.8-2-4.8-.1-.9-.5-1.7-.9-1.7s-1.3-1.2-2-2.8c-1.7-3.9-6.3-12-9.7-17.2-1.7-2.5-3.4-5.2-4-6.1-3.3-5.3-7-10.5-8.2-11.7-.7-.7-1.3-1.7-1.3-2.1 0-.4-.8-1.6-1.8-2.7-.9-1-4.6-5.5-8.1-9.8-14.1-17.5-30.6-33.7-48.5-47.6-1-.8-2.6-2.2-3.5-3-3-2.8-15-11-16-11-.6 0-1.1-.5-1.1-1 0-.6-.5-1-1.1-1-.6 0-2.5-1.1-4.3-2.5-1.8-1.4-3.8-2.5-4.4-2.5-.7 0-1.2-.4-1.2-.9s-.8-1.1-1.7-1.4c-2.5-.8-9.7-5-10.1-6-.2-.4-1-.7-1.8-.7s-3.1-1-5.2-2.3c-2-1.2-4.8-2.7-6.2-3.3-5.6-2.5-14.6-6.6-16.2-7.5-1-.5-2.7-.9-3.8-.9-1.1 0-2-.5-2-1 0-.6-1.1-1-2.4-1-1.3 0-2.9-.7-3.6-1.5-.7-.8-2.5-1.5-4.1-1.5-1.5 0-3.1-.5-3.4-1-.3-.6-1.7-1-3-1s-2.7-.5-3-1c-.3-.6-2.1-1-3.8-1-1.8 0-4.1-.7-5.1-1.5-1.1-.8-3.2-1.5-4.7-1.5s-3.1-.5-3.4-1c-.3-.6-2.6-1-5-1s-4.7-.5-5-1c-.3-.6-2.9-1-5.6-1-2.8 0-5.8-.4-6.8-1-1-.5-4.3-1.4-7.2-1.9-14.9-2.7-15.7-3.2-7.9-4.7 6.5-1.3 11.8-1.2 44 .5zm-69 8.2c4.1.6 12.5 1.5 18.5 1.9 14.3 1.2 19.8 2 20.9 3.1.6.5 1.8.9 2.7.9 1 0 3.2.8 5.1 1.7 6 3 6.8 3.3 8.3 3.3.8 0 2.3.4 3.3.9 1.5.8 6.2 2.8 11.7 5 10 4 14.4 6.1 15 7.1.3.6 1.5 1 2.6 1 1 0 1.9.4 1.9 1 0 .5.8 1 1.8 1.1.9 0 3.1.9 4.7 1.9 1.7 1.1 4.6 2.7 6.5 3.7 1.9.9 3.7 1.9 4 2.2.9 1 4.3 3 8.3 4.8 2 1 3.7 2.1 3.7 2.5 0 .5.4.8 1 .8.9 0 27.9 18.5 29 19.9.3.3 2.3 1.9 4.5 3.6 2.2 1.6 4.5 3.4 5.1 4 .6.5 4 3.5 7.5 6.5 13.6 11.7 33.3 32.5 45.5 48 6.7 8.6 7.1 9.1 13.9 19.1 2.8 4.1 5.3 7.5 5.8 7.7.4.2.7.8.7 1.3 0 .9 4.8 8.8 6 9.9.6.5 1.8 2.8 9.2 17.5 1.7 3.3 3.4 6.7 3.9 7.5.5.8 1.2 2.3 1.5 3.2.4 1 1 1.8 1.5 1.8s.9 1.1.9 2.5.5 2.5 1 2.5c.6 0 1 .7 1 1.4 0 .8 1.1 3.6 2.5 6.2s2.5 5.5 2.5 6.5c0 1.1.5 1.9 1 1.9.6 0 1 .9 1 2 0 2 .2 2.7 3.3 8.8.9 1.9 1.7 4.5 1.7 5.8 0 1.3.5 2.4 1 2.4.6 0 1 1.3 1 2.9 0 1.7.5 3.3 1 3.6.6.3 1 1.9 1 3.4s.7 3.6 1.5 4.7c.8 1 1.5 3.3 1.5 5.1 0 1.7.5 3.5 1 3.8.6.3 1 2.1 1 3.9 0 1.7.4 3.6.9 4.1.5.6 1.1 3 1.4 5.5.3 2.5 1.3 7.9 2.2 12 .9 4.1 1.9 10.4 2.2 14 .2 3.6.9 6.9 1.4 7.4.5.6.9 8 .8 16.5 0 9.7-.4 14.8-.9 13.6-.5-1.1-.9-3.4-.9-5.2-.1-1.7-.5-3.5-1.1-3.8-.5-.3-1-2.1-1-4s-.4-3.7-1-4c-.5-.3-1-1.6-1-2.9 0-1.2-.7-3.1-1.5-4.2-.8-1-1.5-2.8-1.5-4 0-1.1-.4-2.4-.8-3-.4-.5-1.4-2.7-2.1-4.9-.7-2.2-2.4-6.3-3.7-9.2-1.3-2.8-2.4-5.6-2.4-6.1 0-1.4-3-7.1-4.1-7.7-.5-.4-.9-1.5-.9-2.6 0-1-.4-1.9-1-1.9-.5 0-1-.8-1.1-1.8 0-.9-.9-3.1-2-4.7-1-1.7-2.3-3.9-2.9-5-.5-1.1-2.1-3.8-3.5-6s-3.2-5.5-4.2-7.3c-.9-1.7-2-3.2-2.5-3.2-.4 0-.8-.5-.8-1.2 0-.6-1.1-2.6-2.5-4.4-1.4-1.8-2.5-3.7-2.5-4.2 0-.6-.3-1.2-.8-1.4-.4-.2-2.5-2.8-4.7-5.8s-4.2-5.7-4.5-6c-.3-.3-1.6-1.9-2.8-3.5-9.4-12.4-36.4-39.5-47.7-48-2.2-1.6-4.5-3.4-5.1-4-.6-.5-2.7-2.1-4.7-3.5s-3.7-2.8-3.7-3.3c0-.4-.7-.7-1.5-.7s-1.5-.5-1.5-1c0-.6-.5-1-1.1-1-.6 0-3.8-2-7.2-4.3-3.4-2.4-6.9-4.7-7.7-5-1.7-.8-5.2-2.9-6-3.7-1.5-1.5-24.3-13-25.8-13-.7 0-1.2-.5-1.2-1 0-.6-.7-1-1.5-1s-2.3-.4-3.3-.9c-.9-.4-3.5-1.6-5.7-2.6-2.2-.9-4.8-2.1-5.7-2.6-1-.5-2.7-.9-3.7-.9-1.1 0-2.3-.5-2.6-1-.3-.6-1.4-1-2.4-1s-3.2-.7-4.7-1.5c-1.6-.8-3.7-1.5-4.6-1.5-.9 0-2-.5-2.3-1-.3-.6-2.2-1-4.1-1-1.9 0-3.4-.4-3.4-.9s-1.7-1.1-3.7-1.4c-7.1-1-14.8-2.9-15.7-3.8-.6-.5-3.3-.9-6.1-.9s-5.5-.4-6.1-.9c-1.6-1.7-15.2-2.3-49.9-2.3s-48.3.6-49.9 2.3c-.6.5-3 .9-5.4.9-2.4 0-6.7.7-9.6 1.6-9.4 2.9-11.2 3.4-13.9 3.4-1.5 0-2.7.4-2.7 1 0 .5-1.5 1-3.4 1s-3.8.4-4.1 1c-.3.5-1.4 1-2.3 1-.9 0-3 .7-4.6 1.5-1.5.8-3.7 1.5-4.7 1.5s-2.1.4-2.4 1c-.3.5-1.5 1-2.6 1-1 0-2.7.4-3.7.9-1.8.9-7.1 3.2-11.2 4.9-6 2.4-31 15.1-32 16.3-.3.3-1.2.8-2 1.2-1.9.9-4.2 2.3-10.3 6.4-2.6 1.8-5.2 3.3-5.7 3.3-.6 0-1 .4-1 1 0 .5-.7 1-1.5 1s-1.5.4-1.5 1c0 .5-.7 1-1.5 1s-1.5.3-1.5.7c0 .5-1.7 1.9-3.7 3.3s-4.1 3-4.7 3.5c-.6.6-2.9 2.4-5.1 4-11.5 8.6-38.6 35.7-46.9 47-1.7 2.2-3.3 4.2-3.6 4.5-.3.3-1.9 2.3-3.6 4.5-1.6 2.2-3.7 4.9-4.6 5.9-1 1.1-1.8 2.3-1.8 2.7 0 .5-2 3.6-4.4 7.1-2.4 3.5-6 9.4-8.1 13.3-2.1 3.8-4.3 7.7-4.9 8.5-2.1 2.8-3.6 6-3.6 7.5 0 .8-.4 1.5-.9 1.5s-1.2 1.1-1.5 2.5c-.4 1.4-1.1 2.5-1.6 2.5-.6 0-1 .7-1 1.5s-.4 2.3-.9 3.3c-.6.9-1.7 3.8-2.7 6.4-.9 2.7-2.1 4.8-2.5 4.8-.5 0-.9.8-.9 1.7 0 2.1-2.3 9-3.3 9.9-.4.4-.7 1.7-.7 2.8 0 1.2-.7 3-1.5 4-.8 1.1-1.5 3-1.5 4.2 0 1.3-.4 2.6-1 2.9-.5.3-1 1.6-1 2.7 0 1.2-.4 3.5-1 5.2-.5 1.7-1.3 4.9-1.7 7.1-.6 3.5-.8 2.7-1.7-6-1.3-13.7-1.3-39.1.2-50 1.7-13.3 2.3-16.5 3.3-17.1.5-.3.9-2 .9-3.7 0-1.8.7-4.1 1.5-5.1.8-1.1 1.5-3.2 1.5-4.8 0-1.5.5-2.8 1-2.8.6 0 1-1.3 1-2.9 0-1.7.5-3.3 1-3.6.6-.3 1-1.6 1-2.8 0-1.3.6-3.1 1.3-4.2.7-1.1 1.9-4 2.7-6.5.7-2.5 1.7-4.9 2.2-5.5.4-.5.8-1.5.8-2.2 0-.7 1.1-3.6 2.5-6.5 1.4-2.8 2.5-5.8 2.5-6.5 0-.7.5-1.3 1-1.3.6 0 1-.6 1-1.3 0-1.8 2.8-7.5 4.1-8.2.5-.4.9-1.5.9-2.6 0-1 .5-1.9 1-1.9.6 0 1-.9 1-2s.5-2 1-2c.6 0 1-.9 1-1.9 0-1.1.5-2.3 1.1-2.6.5-.4 1.4-1.7 1.9-2.8.6-1.2 2.1-4 3.5-6.2s2.8-4.7 3.2-5.5c1.3-2.7 9.7-15.5 11.5-17.4 1-1.1 1.8-2.2 1.8-2.6 0-.3 2.1-3.2 4.6-6.5 2.5-3.3 5.8-7.7 7.4-9.8 2.8-3.7 9.4-11.5 17.5-20.7 6.7-7.6 21.9-22.1 31.6-30.2 2.4-2.1 5.8-4.9 7.4-6.3 1.7-1.4 4.2-3.3 5.8-4.3 1.5-.9 2.7-2 2.7-2.4 0-.4.7-.8 1.5-.8s1.5-.4 1.5-.8c0-.8 17.5-13.2 18.7-13.2.3 0 2.1-1.1 3.9-2.5 1.8-1.4 3.7-2.5 4.3-2.5.6 0 1.1-.3 1.1-.8 0-.4 1.9-1.6 4.1-2.7 6.7-3.2 7.9-3.9 7.9-4.7 0-.5.9-.8 2-.8s2-.5 2-1c0-.6.9-1 2-1s2-.3 2-.8c0-.6 6.8-4 13-6.6.8-.3 2.2-1 3-1.4 4-2.3 6.1-3.2 7.5-3.2.8 0 1.5-.5 1.5-1 0-.6.9-1 2-1s2.8-.4 3.8-1c.9-.5 3.5-1.6 5.7-2.5 2.2-.9 4.8-2.1 5.7-2.6 1-.5 2.9-.9 4.3-.9s2.5-.3 2.5-.8c0-.4 2.8-1.5 6.3-2.5 3.4-1 7.2-2.3 8.5-2.8 1.3-.5 3.6-.9 5.2-.9s3.2-.5 3.5-1c.3-.6 3.6-1 7.3-1.1 3.7 0 11.4-.7 17.2-1.4 13.6-1.6 17-1.7 26-.4zm88 16.5c0 .2-.9.4-2.1.4-1.1 0-1.8-.4-1.4-1 .5-.8 3.5-.3 3.5.6zM319.5 88c-.3.5-1.3 1-2.1 1s-1.2-.5-.9-1c.3-.6 1.3-1 2.1-1s1.2.4.9 1zm207.3-.1c.9.5 3.1 1.4 4.7 2.1 1.7.6 4.3 1.8 5.8 2.6 1.6.8 3.5 1.4 4.3 1.4.8 0 1.4.4 1.4 1 0 .5.6 1 1.3 1 .8 0 6 2.4 11.6 5.2 5.6 2.9 11 5.7 12.1 6.3 1.1.5 2 1.3 2 1.7 0 .5.9.8 2 .8s2 .4 2 1c0 .5.5 1 1.1 1 .6 0 2.5 1.1 4.3 2.5 1.8 1.4 3.8 2.5 4.4 2.5.7 0 1.2.4 1.2 1 0 .5.5 1 1.1 1 1.1 0 8.2 5 8.7 6.2.2.5.8.8 1.4.8.5 0 1.5.6 2.3 1.2.7.7 2.5 2.2 4 3.2 1.4 1.1 3.6 2.8 4.8 3.9 1.2 1 3.8 3.1 5.7 4.5 3.9 3.1 29.8 28.7 35.1 34.7 1.9 2.2 4.8 5.8 6.4 8 1.7 2.2 3.6 4.6 4.3 5.3 2.5 2.7 14.2 20 14.2 21.1 0 .6.4 1.1.8 1.1.5 0 1.4 1 2 2.2.7 1.3 2.7 5 4.6 8.3 1.9 3.3 5.8 10.7 8.6 16.5 2.8 5.8 5.6 11.3 6.1 12.2.5 1 .9 2.5.9 3.3 0 .8.4 1.5.9 1.5s1.2 1.6 1.5 3.5c.4 1.9 1.1 3.5 1.6 3.5.6 0 1 1.1 1 2.4 0 1.4.5 2.8 1 3.1.6.3 1 1.7 1 3s.5 2.7 1 3c.6.3 1 1.9 1 3.4 0 1.6.6 3.4 1.4 4 .8.6 1.7 2.7 2 4.6.3 1.9.9 5.1 1.2 7 .3 1.9 1 3.8 1.5 4.1.5.3.9 2.2.9 4.3 0 2.1.3 4.1.8 4.5 1 1.1 3.3 12 3.8 18.6.4 4 .2 5.1-.5 4-.6-.8-1.1-2.9-1.1-4.7 0-1.7-.4-3.5-1-3.8-.5-.3-1-1.6-1-2.8 0-1.2-.7-3.5-1.5-5.1-.8-1.5-1.5-3.9-1.5-5.2 0-1.3-.4-2.4-1-2.4-.5 0-1-1.3-1-2.9 0-1.7-.4-3.3-1-3.6-.5-.3-1-1.3-1-2.2 0-1.4-2-6.6-4.1-10.5-.5-1-.9-2.7-.9-3.7 0-1.1-.4-2.3-1-2.6-.5-.3-1-1.5-1-2.6 0-1-.4-1.9-1-1.9-.5 0-1-.4-1-1 0-.9-4.3-11-6-14-1.2-2-9-16.9-10.4-19.7-.6-1.3-1.4-2.3-1.8-2.3-.5 0-.8-.7-.8-1.6 0-.8-1.1-3-2.5-4.8-1.4-1.8-2.5-3.8-2.5-4.4 0-.7-.4-1.2-1-1.2-.5 0-1-.5-1-1.2 0-.6-1.1-2.6-2.5-4.4-1.4-1.8-2.5-3.7-2.5-4.3 0-.6-.3-1.1-.7-1.1-.5 0-2.1-2.1-3.8-4.8-1.6-2.6-3.2-4.9-3.5-5.2-.3-.3-1.8-2.3-3.5-4.5-1.6-2.2-3.1-4.2-3.5-4.5-.3-.3-1.8-2.3-3.5-4.5-1.6-2.2-3.2-4.2-3.5-4.5-.3-.3-5.3-5.9-11.1-12.5-10.8-12.2-16.5-17.8-29.8-29.5-4.1-3.6-7.9-7-8.5-7.5-.6-.6-2.9-2.4-5.1-4-2.2-1.7-4.2-3.3-4.5-3.6-1.2-1.5-28-19.9-29-19.9-.5 0-1-.3-1-.8 0-.4-1.8-1.6-4-2.6-2.2-1.1-4-2.3-4-2.8 0-.4-.9-.8-2-.8s-2-.3-2-.8c0-.4-1-1.2-2.3-1.8-1.2-.6-5.3-2.7-9-4.7-3.8-2-7.5-3.7-8.2-3.7-.8 0-1.7-.5-2-1-.8-1.2 2.9-1.3 5.3-.1zM315 89.4c0 .2-3.9 2.4-8.7 4.7-4.9 2.4-9 4.6-9.3 4.9-.3.3-1.4 1-2.5 1.6-9.2 5-12.4 6.9-15.2 9-1.7 1.3-3.5 2.4-3.8 2.4-.7 0-18.3 12.2-22 15.3-1.1.8-4 3.2-6.5 5.2-18 14.5-31.9 27.7-45.5 43-3.8 4.4-7.9 8.9-9 10.1-1.1 1.2-2.9 3.4-4 4.9-1.1 1.6-2.6 3.4-3.2 4.1-1.6 1.5-20.3 28.3-20.3 29 0 .8-5.5 8.9-6.2 9.2-.5.2-.8 1.2-.8 2.2 0 1-.3 2-.7 2.2-.9.3-2.5 3.2-9.7 17.3-3.3 6.5-5.2 9.3-5.4 8.1-.2-1 0-2.1.6-2.5.5-.3 1.3-2.1 1.7-3.9.3-1.7 1.1-3.2 1.6-3.2s.9-.7.9-1.5.4-2.3.9-3.3c.5-.9 3.2-6.4 6.1-12.2 11.1-22.5 23.4-41.5 38.7-60.1 8.9-10.7 27.8-29.3 39.3-38.7 3.6-2.9 7.4-6.1 8.5-7 3.7-3.1 15.7-11.2 16.6-11.2.5 0 .9-.5.9-1 0-.6.5-1 1.2-1 .6 0 2.6-1.1 4.4-2.5 1.8-1.4 3.7-2.5 4.2-2.5.6 0 1.2-.3 1.4-.8.3-.8 3.7-2.7 18.2-10.1 5.5-2.8 10.5-5.1 11.3-5.1.7 0 1.3-.5 1.3-1 0-.6.6-1 1.4-1 1.3 0 3.4-.9 9.6-4.1 1.6-.9 4-1.1 4-.5zm-173 177c0 .8-.4 1.8-1 2.1-.5.3-1-.3-1-1.4 0-1.2.5-2.1 1-2.1.6 0 1 .6 1 1.4zm-2.8 6.8c-.7.7-1.2.8-1.2.2 0-1.4 1.2-2.6 1.9-1.9.2.3-.1 1.1-.7 1.7zm-3 7c-.7.7-1.2.8-1.2.2 0-1.4 1.2-2.6 1.9-1.9.2.3-.1 1.1-.7 1.7zM719 334.5c0 2.3-.3 2.7-1 1.5-.5-.8-1-2.9-1-4.5 0-2.3.3-2.7 1-1.5.5.8 1 2.8 1 4.5zm-601.5 69.2c.9 4.7 2.5 17.1 2.5 19.8 0 1.1-.4 5.6-.9 10s-1 8.4-1.1 9c0 .5-.6.1-1.2-.9-1.5-2.6-2.5-41.6-1.1-41.6.6 0 1.4 1.7 1.8 3.7zm8.7 45c.5 2.7 1.2 6.5 1.5 8.5.3 2.1.9 3.8 1.4 3.8.5 0 .9 1.2.9 2.7 0 1.6.7 3.7 1.5 4.7.8 1.1 1.5 3 1.5 4.3 0 1.3.5 2.3 1 2.3.6 0 1 1.1 1 2.4 0 1.4.5 2.8 1 3.1.6.3 1 1.5 1 2.5s1.1 4 2.5 6.6c1.4 2.6 2.5 5.5 2.5 6.5 0 1.1.5 1.9 1 1.9.6 0 1 .7 1 1.5 0 .9 1.1 3.3 2.5 5.5s2.5 4.6 2.5 5.5c0 .8.5 1.5 1 1.5.6 0 1 .8 1 1.9 0 1 .6 2.4 1.3 3 .8.6 2.4 3.2 3.8 5.8 1.3 2.7 3.4 6.2 4.6 7.9 1.3 1.7 2.3 3.6 2.3 4.2 0 .7.5 1.2 1 1.2.6 0 1 .4 1 1 0 .8 9.4 14.7 13.6 20 15.1 19.2 35.5 40.2 49.9 51.5 2.1 1.6 5.4 4.3 7.5 6 2 1.6 7.7 5.7 12.6 9 4.9 3.3 9.1 6.3 9.2 6.7.2.5 1 .8 1.8.8s1.4.3 1.4.8c0 .4 1.9 1.6 4.1 2.7 6.7 3.2 7.9 3.9 7.9 4.7 0 .5.9.8 1.9.8 1.1 0 2.1.3 2.3.7.3.7 9.5 5.5 19.8 10.2 1.9.9 3.7 1.9 3.8 2.3.2.5 1.2.8 2.3.8 1.1 0 2.7.4 3.7.9.9.5 3.1 1.4 4.7 2.1 1.7.6 4.3 1.8 5.8 2.6 1.6.8 3.9 1.4 5.2 1.4 1.3 0 2.7.4 3 1 .3.5 1.7 1 3 1s2.7.4 3 1c.3.5 1.9 1 3.4 1s3.6.7 4.7 1.5c1 .8 3.3 1.5 5.1 1.5 1.7 0 3.5.5 3.8 1 .3.5 2.6 1 5 1s4.7.4 5 1c.3.5 2.6 1 5.1 1 2.5 0 5.5.6 6.7 1.2 3.9 2.2 17.6 3 51.2 3s47.3-.8 51.2-3c1.2-.6 4.2-1.2 6.7-1.2s4.8-.5 5.1-1c.3-.6 2.6-1 5-1s4.7-.4 5-1c.3-.5 2.1-1 3.8-1 1.8 0 4.1-.7 5.1-1.5 1.1-.8 3.2-1.5 4.7-1.5s3.1-.5 3.4-1c.3-.6 1.7-1 3-1s2.7-.5 3-1c.3-.6 1.7-1 3-1s3.6-.6 5.2-1.4c1.5-.8 4.2-2 5.8-2.6 1.7-.7 3.8-1.6 4.7-2.1 1-.5 2.6-.9 3.7-.9s2.1-.3 2.3-.8c.2-.4 1.9-1.4 3.8-2.3 10.3-4.7 19.5-9.5 19.8-10.2.2-.4 1.2-.7 2.3-.7 1 0 1.9-.4 1.9-.9s.8-1.1 1.8-1.5c.9-.3 3.5-1.7 5.7-3.1 2.2-1.4 4.7-2.8 5.5-3.2.8-.4 1.7-.9 2-1.2.3-.3 4.8-3.5 10-7s10.2-7.1 11.1-8c2.6-2.5 5.9-5.1 6.5-5.1.3 0 1.1-.6 1.9-1.2.7-.7 4.1-3.8 7.6-6.8 13.3-11.5 29.5-28.8 42.3-45 3.2-4.1 13.6-19.1 13.6-19.6 0-.4 1.5-2.7 3.3-5.3 1.8-2.5 4.3-6.7 5.6-9.4 1.3-2.6 3-5.2 3.8-5.8.7-.6 1.3-2 1.3-3 0-1.1.5-1.9 1-1.9.6 0 1-.8 1.1-1.8 0-.9.9-3.1 2-4.7 1-1.7 2.1-3.7 2.5-4.5 1.7-4.4 2.7-6.7 3.5-8.2.5-1 .9-2.4.9-3.2 0-.7.7-1.9 1.5-2.6.8-.7 1.5-2.3 1.5-3.6 0-1.2.5-2.6 1-2.9.6-.3 1-1.7 1-3.1 0-1.3.5-2.4 1-2.4.6 0 1-1.3 1-2.9 0-1.6.7-3.4 1.5-4.1.8-.7 1.5-2.5 1.5-4.1 0-1.5.4-3 .9-3.3.5-.3 1.1-2 1.4-3.8 2.7-15.8 4.1-18.1 3.3-5.3-.7 11.2-2 20.8-4.1 30.5-.9 4.1-1.9 9.3-2.2 11.5-.3 2.2-.9 4.4-1.4 4.9-.5.6-.9 2.7-.9 4.7 0 2.1-.4 4.1-1 4.4-.6.3-1 1.9-1 3.4s-.7 3.6-1.5 4.7c-.8 1-1.5 3.3-1.5 5.1 0 1.7-.4 3.5-1 3.8-.6.3-1 1.7-1 3s-.5 2.7-1 3c-.6.3-1 1.6-1 2.9 0 1.2-.7 3.1-1.5 4.2-.8 1-1.5 2.7-1.5 3.7 0 .9-.5 2.7-1.2 4-2.3 4.4-2.8 5.7-2.8 6.7 0 .6-1.1 3.3-2.5 6.2-1.4 2.8-2.5 5.8-2.5 6.5 0 .7-.4 1.3-1 1.3-.5 0-1 .6-1 1.3 0 1.8-2.8 7.5-4.1 8.2-.5.4-.9 1.5-.9 2.6 0 1-.4 1.9-1 1.9-.5 0-1 .9-1 2s-.4 2-1 2c-.5 0-1 .9-1 1.9 0 1.1-.4 2.2-.9 2.6-.6.3-1.6 1.8-2.4 3.3-4.4 8.6-14.9 25.5-17.4 28-.7.8-1.8 2.3-2.4 3.4-2.6 4.8-16.9 22.7-29.4 36.7-7.1 8.1-18.3 18.8-30.5 29.3-3 2.6-6.8 5.9-8.5 7.3-1.6 1.4-4.2 3.3-5.7 4.3-1.6.9-2.8 2-2.8 2.4 0 .4-.7.8-1.5.8s-1.5.4-1.5.8c0 .9-17.4 13.2-18.6 13.2-.4 0-2.2 1.1-4 2.5-1.8 1.4-3.7 2.5-4.3 2.5-.6 0-1.1.3-1.1.8 0 .4-1.9 1.6-4.1 2.7-6.7 3.2-7.9 3.9-7.9 4.7 0 .5-.9.8-2 .8s-2 .4-2 1c0 .5-.9 1-2 1s-2 .3-2 .8c0 .6-6.8 4-13 6.6-.8.3-2.2 1-3 1.4-4 2.3-6.1 3.2-7.5 3.2-.8 0-1.5.4-1.5 1 0 .5-.8 1-1.8 1s-4.2 1.1-7 2.5c-2.9 1.4-5.8 2.5-6.6 2.5-.8 0-1.8.5-2.1 1-.3.6-1.9 1-3.6 1-1.6 0-2.9.4-2.9 1 0 .5-1 1-2.2 1-1.3.1-3.4.7-4.8 1.5s-3.7 1.4-5.2 1.5c-1.5 0-3 .5-3.3 1-.3.6-2.1 1-4 1s-3.7.4-4 1c-.3.5-2.1 1-3.8 1-1.8.1-4.3.7-5.7 1.5-1.4.8-4.2 1.4-6.2 1.5-2 0-4 .4-4.3 1-.3.5-3 1-6 1s-5.7.5-6 1c-.8 1.3-21.2 1.3-22 0-.3-.6-2.4-1-4.5-1s-4.2-.5-4.5-1c-.3-.6-2.3-1-4.4-1-2 0-4.6-.7-5.7-1.5-1-.8-3.3-1.5-5.1-1.5-1.7 0-3.5-.5-3.8-1-.3-.6-1.9-1-3.5-1s-3.2-.5-3.5-1c-.3-.6-1.5-1-2.5-1-1.7 0-6.6-1.8-11.2-4.1-1-.5-2.5-.9-3.3-.9-.8 0-2.3-.4-3.3-.9-.9-.5-2.8-1.3-4.2-1.9-6.3-2.7-10.7-4.5-12.5-5.2-5.8-2.3-9.5-4.2-10-5-.3-.6-1.5-1-2.6-1-1 0-1.9-.5-1.9-1 0-.6-.8-1-1.7-1.1-1 0-3.1-.9-4.8-1.9-1.6-1.1-4.6-2.7-6.5-3.7-1.9-.9-3.7-1.9-4-2.2-.9-1-4.3-3-8.2-4.8-2.1-1-3.8-2.1-3.8-2.5 0-.5-.4-.8-1-.8-.9 0-27.9-18.5-29-19.9-.3-.3-2.3-1.9-4.5-3.6-2.2-1.6-4.2-3.2-4.5-3.5-.3-.3-3.9-3.5-8-7-12.5-10.8-36.9-36.1-41.9-43.4-.8-1.2-3.4-4.4-5.8-7.2s-4.3-5.6-4.3-6.1-.9-1.8-2-2.8c-1-.9-3.8-4.7-6.2-8.4-2.4-3.6-4.6-6.8-5-6.9-.5-.2-.8-.8-.8-1.3 0-1.2-5.2-9.3-6.2-9.7-.5-.2-.8-1-.8-1.9 0-.8-.8-2.7-1.7-4.1-3.1-4.7-4.2-6.6-6.8-12.2-1.5-3-3.1-6.2-3.6-7-.5-.8-1.2-2.3-1.5-3.3-.4-.9-1-1.7-1.5-1.7s-.9-1.1-.9-2.5-.4-2.5-1-2.5c-.5 0-1-.7-1-1.4 0-.8-1.1-3.6-2.5-6.2s-2.5-5.5-2.5-6.5c0-1.1-.4-1.9-1-1.9-.5 0-1-.9-1-2 0-2-.2-2.7-3.3-8.8-.9-1.9-1.7-4.5-1.7-5.8 0-1.3-.4-2.4-1-2.4-.5 0-1-1.3-1-2.9 0-1.7-.4-3.3-1-3.6-.5-.3-1-1.9-1-3.4s-.7-3.6-1.5-4.7c-.8-1-1.5-3.3-1.5-5.1 0-1.7-.4-3.4-.9-3.7-.5-.3-1.2-2.3-1.5-4.3-.4-2.1-1.2-6.3-1.8-9.3-1.8-9-.9-54.5 1-52.5.3.2.9 2.6 1.4 5.2zm594.5 42c-.3 1-.5.2-.5-1.7s.2-2.7.5-1.8c.2 1 .2 2.6 0 3.5zm-2.1 18.2c-1.1 13.9-4.2 31.9-5.7 33.5-.5.6-.9 2.9-.9 5.3s-.4 4.3-1 4.3c-.5 0-1 1.2-1 2.7 0 3-1.6 8.5-3.6 12.6-.8 1.6-1.4 4-1.4 5.3 0 1.3-.4 2.4-1 2.4-.5 0-1 1.1-1 2.5s-.4 3.3-.9 4.3c-.5.9-1.7 3.5-2.6 5.7-.9 2.2-2 4.8-2.5 5.7-.6 1-1 2.5-1 3.3 0 .8-.4 1.5-1 1.5-.5 0-1 1.1-1 2.5s-.4 2.5-1 2.5c-.5 0-1 .8-1 1.9 0 1-.7 2.4-1.5 3.1-.8.7-1.5 1.6-1.5 2.1 0 1.5-4.3 10.3-5.7 11.7-.7.7-1.3 2-1.3 2.8 0 .8-.3 1.4-.8 1.4-.4 0-1.4 1.5-2.1 3.2-.8 1.8-3 5.4-4.8 7.9-1.8 2.6-3.3 5.1-3.3 5.7 0 .6-.3 1.2-.7 1.4-.5.1-2.1 2.3-3.7 4.7-1.6 2.5-3.3 5-3.8 5.5-.4.6-3.5 4.6-6.9 8.9-15.3 19.8-39.6 43.3-57.9 56.2-3 2.1-5.6 4.2-5.8 4.7-.2.4-.8.8-1.4.8-.6 0-3.2 1.6-5.8 3.5-2.6 1.9-5.3 3.5-5.9 3.5-.6 0-1.1.3-1.1.8 0 .7-.4 1-7.7 4.6-2.1 1.1-4 2.2-4.3 2.5-.5.6-1.7 1.3-7.5 4.3-3.6 1.9-18.1 8.6-21.2 9.9-1.3.5-3.5 1.4-5 2-1.6.6-4.1 1.7-5.6 2.5-1.6.8-3.7 1.4-4.7 1.4s-2.2.4-2.5 1c-.3.5-1.7 1-3.1 1-1.3 0-3.2.4-4.2.9-3.2 1.6-8.7 3.3-12 3.8-1.8.3-3.5.9-3.8 1.4-.3.5-2.3.9-4.4.9-2.1 0-4.2.4-4.5 1-.3.5-2.4 1-4.6 1-2.2 0-5 .5-6.2 1.2-3.1 1.7-13.7 2.9-31 3.4-10.3.4-14.7.2-14.2-.5.3-.6 2.8-1.1 5.5-1.1s5.2-.5 5.5-1c.3-.6 2.4-1 4.5-1s4.2-.5 4.5-1c.3-.6 1.8-1 3.3-1 1.5 0 4-.7 5.6-1.5 1.5-.8 3.9-1.5 5.2-1.5 1.2 0 2.6-.5 2.9-1 .3-.6 1.9-1 3.5-1s3.2-.5 3.5-1c.3-.6 1.6-1 2.9-1 1.2 0 3.1-.7 4.2-1.5 1-.8 2.7-1.5 3.7-1.5 1.7 0 2.7-.4 7.4-2.8 1.3-.7 3.1-1.2 4.2-1.2 1 0 2.4-.7 3.1-1.5.7-.8 1.9-1.5 2.6-1.5.8 0 2.2-.4 3.2-.9 1.5-.8 3.8-1.8 8.2-3.5.8-.4 2.9-1.5 4.5-2.5 1.7-1.1 3.8-2 4.8-2 .9-.1 1.7-.6 1.7-1.1 0-.6.8-1 1.9-1 1 0 2.3-.6 2.9-1.3.6-.7 2.7-1.9 4.7-2.7 1.9-.7 3.5-1.7 3.5-2.2 0-.4.9-.8 2-.8s2-.3 2-.8c0-.4 1.7-1.6 3.8-2.7 5-2.5 31.1-19.8 33.9-22.4 1.2-1.2 2.6-2.1 3.2-2.1.5 0 1.1-.3 1.3-.8.2-.4 2.1-2.2 4.3-4 2.2-1.9 6-5 8.4-7 12.8-10.8 25.3-23 36.6-35.7 3.9-4.4 7.9-8.9 9-10.1 1.1-1.2 2.9-3.4 4-4.9 1.1-1.6 2.6-3.4 3.2-4.1 1.7-1.7 20.3-28.3 20.3-29.1 0-.3 1.6-2.8 3.5-5.4 1.9-2.7 3.5-5.5 3.5-6.3 0-.8.3-1.6.8-1.8.8-.4 2.4-3.3 9.7-17.8 7.5-14.9 10.8-22.2 13.5-30 1.2-3.4 3.4-8.7 5.1-12.2.5-1 .9-2.9.9-4.2 0-1.4.5-2.8 1-3.1.6-.3 1-1.6 1-2.9 0-1.2.4-2.6.9-3.1 1-1 2.9-7.7 3.8-13.3.3-1.8.9-3.5 1.4-3.8.5-.3.9-2.3.9-4.4 0-2.1.3-4.7.8-5.7 1-2.6 1.5 3.4.8 11.6zM130 541.3c0 1.8-.2 1.9-1 .7-1.3-2-1.3-4.3 0-3.5.6.3 1 1.6 1 2.8zm3 8.2c0 1.3.5 2.7 1 3 .6.3 1 1.7 1 3s.5 2.7 1 3c.6.3 1 1.5 1 2.5s.3 2 .8 2.2c.7.3 2.5 3.9 5.2 10.3.7 1.6 1.6 3.7 2.1 4.5 1.5 2.7 9.2 17.5 10.3 19.7.6 1.3 1.4 2.3 1.9 2.3.4 0 .7.7.7 1.6 0 .8 1.1 3 2.5 4.8 1.4 1.8 2.5 3.8 2.5 4.4 0 .7.5 1.2 1 1.2.6 0 1 .5 1 1.2 0 .6 1.1 2.6 2.5 4.4 1.4 1.8 2.5 3.7 2.5 4.3 0 .6.3 1.1.8 1.1.4 0 2 2.1 3.7 4.8 1.6 2.6 3.2 4.9 3.5 5.2.3.3 1.8 2.3 3.5 4.5 1.6 2.2 3.1 4.2 3.5 4.5.3.3 1.8 2.3 3.5 4.5 1.6 2.2 3.2 4.2 3.5 4.5.3.3 5.3 5.9 11.1 12.5 10.6 12 17.5 18.8 30.3 30 3.8 3.3 7.4 6.5 8 7 .6.6 2.9 2.4 5.1 4 2.2 1.7 4.2 3.3 4.5 3.6.3.3 3.9 3 8 5.9 4.1 2.9 7.7 5.7 7.8 6.2.2.4.8.8 1.4.8.6 0 3.2 1.6 5.8 3.5 2.6 1.9 5.3 3.5 5.9 3.5.6 0 1.1.3 1.1.7 0 .5 1.8 1.7 4 2.7 2.2 1.1 4 2.3 4 2.8 0 .4.9.8 2 .8s2 .3 2 .7c0 .5 1 1.3 2.3 1.9 2.2 1.1 17 8.8 19.7 10.3.8.5 2.6 1.3 4 1.9 1.4.5 5.2 2.2 8.5 3.7s7.1 3.2 8.5 3.7c1.4.6 3.3 1.4 4.2 1.9 1 .5 2.6.9 3.7.9 1 0 2.4.7 3.1 1.5.7.8 2.3 1.5 3.6 1.5 1.2 0 2.6.4 2.9 1 .3.5 1.9 1 3.5 1s3.2.4 3.5 1c.3.5 1.6 1 2.9 1 1.2 0 2.6.4 3.2.9 1 1.1 7.7 2.9 13.4 3.8 1.9.3 4.3 1.1 5.3 1.8 2.6 1.8-14.8.7-18.5-1.1-1.5-.8-4.5-1.4-6.7-1.4s-4.3-.5-4.6-1c-.3-.6-2.4-1-4.5-1s-4.2-.5-4.5-1c-.3-.6-1.8-1-3.3-1-1.5-.1-3.8-.7-5.2-1.5-1.4-.8-3.7-1.4-5.2-1.5-1.6 0-2.8-.5-2.8-1 0-.6-1.3-1-2.9-1-1.7 0-3.3-.5-3.6-1-.3-.6-1.5-1-2.5-1s-3.1-.6-4.7-1.4c-2.6-1.3-4.4-2.1-10.5-4.5-1.3-.5-4.7-2-7.6-3.5-3-1.4-6-2.6-6.8-2.6-.8 0-1.4-.5-1.4-1 0-.6-.7-1-1.5-1-.9 0-3.2-1-5.3-2.3-2-1.2-5-2.9-6.7-3.7-1.6-.8-3.2-1.7-3.5-2-1-1-4.5-3.1-6.2-3.6-1-.4-1.8-1-1.8-1.5s-.5-.9-1.2-.9c-.6 0-2.6-1.1-4.4-2.5-1.8-1.4-3.7-2.5-4.3-2.5-.6 0-1.1-.5-1.1-1 0-.6-.7-1-1.5-1s-1.5-.5-1.5-1c0-.6-.7-1-1.5-1s-1.5-.4-1.5-.9-1.6-1.9-3.5-3.1c-17.5-10.8-53.2-47.4-67.1-68.6-2.2-3.2-4.2-6.1-4.6-6.2-.5-.2-.8-1-.8-1.8s-.4-1.4-1-1.4c-.5 0-1-.5-1-1.1 0-.6-1.1-2.5-2.4-4.2-1.3-1.8-2.9-4.7-3.7-6.5-.8-1.7-1.7-3.2-2-3.2-.4 0-1-1.1-1.3-2.5-.4-1.4-1.1-2.5-1.6-2.5-.6 0-1-.9-1-2s-.4-2-1-2c-.5 0-1-.9-1-1.9 0-1.1-.3-2.1-.7-2.3-1.1-.4-4.3-6.7-4.3-8.4 0-.8-.4-1.4-1-1.4-.5 0-1-1.1-1-2.5s-.4-2.5-1-2.5c-.5 0-1-.7-1-1.5s-.4-2.3-1-3.3c-.5-.9-1.6-3.5-2.5-5.7-.9-2.2-2.1-4.8-2.6-5.7-.5-1-.9-2.9-.9-4.3s-.4-2.5-1-2.5c-.5 0-1-1.3-1-2.9 0-1.6-.6-3.4-1.4-4-.8-.6-1.7-2.7-2-4.6-.3-1.9-.9-5.1-1.2-7-.3-1.9-1-3.8-1.5-4.1-.5-.3-.9-1.9-.9-3.5 0-1.8.4-2.8 1-2.4.6.3 1 1.7 1 3zM348 775c0 .6-1.1.8-2.7.4-4-1-4.1-1.4-.5-1.4 1.8 0 3.2.5 3.2 1zm144 2c-.8.5-3.1 1-5 1-2.6 0-3.1-.3-2-1 .8-.5 3.1-1 5-1 2.6 0 3.1.3 2 1z"/></svg>