<?xml version="1.0" standalone="no"?>
<!DOCTYPE svg PUBLIC "-//W3C//DTD SVG 20010904//EN"
 "http://www.w3.org/TR/2001/REC-SVG-20010904/DTD/svg10.dtd">
<svg version="1.0" xmlns="http://www.w3.org/2000/svg"
 width="836.000000pt" height="836.000000pt" viewBox="0 0 836.000000 836.000000"
 preserveAspectRatio="xMidYMid meet">
<metadata>
Created by potrace 1.11, written by Peter Selinger 2001-2013
</metadata>
<g transform="translate(0.000000,836.000000) scale(0.100000,-0.100000)"
fill="#000000" stroke="none">
<path d="M3076 7815 c-12 -9 -42 -15 -72 -15 -29 0 -55 -4 -59 -9 -3 -5 -30
-13 -60 -16 -31 -4 -58 -11 -61 -16 -3 -5 -23 -9 -44 -9 -21 0 -42 -4 -45 -10
-3 -5 -24 -10 -45 -10 -21 0 -41 -4 -44 -9 -3 -5 -18 -11 -33 -14 -30 -5 -87
-24 -115 -38 -10 -5 -27 -9 -38 -9 -20 0 -26 -2 -88 -33 -19 -9 -42 -17 -53
-17 -10 0 -19 -4 -19 -10 0 -5 -9 -10 -20 -10 -11 0 -28 -4 -38 -9 -9 -5 -44
-21 -77 -36 -33 -15 -68 -31 -77 -36 -10 -5 -24 -9 -32 -9 -8 0 -16 -4 -18 -8
-2 -6 -90 -54 -195 -106 -13 -6 -23 -14 -23 -18 0 -5 -5 -8 -10 -8 -6 0 -36
-16 -66 -35 -30 -19 -59 -35 -64 -35 -6 0 -10 -4 -10 -10 0 -5 -4 -10 -9 -10
-19 0 -278 -189 -373 -272 -34 -29 -79 -69 -101 -88 -72 -62 -211 -203 -293
-295 -43 -49 -81 -92 -84 -95 -3 -3 -18 -23 -35 -45 -16 -22 -32 -42 -36 -45
-13 -10 -199 -281 -199 -290 0 -6 -3 -10 -7 -10 -5 0 -13 -10 -19 -23 -18 -36
-49 -92 -54 -97 -18 -17 -171 -329 -212 -430 -6 -14 -14 -33 -19 -42 -5 -10
-9 -24 -9 -32 0 -8 -8 -29 -17 -48 -31 -62 -33 -68 -33 -93 0 -14 -4 -25 -10
-25 -5 0 -10 -15 -10 -34 0 -19 -5 -36 -10 -38 -6 -2 -12 -18 -14 -35 -3 -18
-8 -38 -12 -44 -7 -13 -18 -57 -34 -139 -4 -25 -16 -74 -25 -110 -9 -36 -19
-90 -22 -120 -3 -30 -11 -64 -19 -75 -19 -27 -21 -1074 -2 -1093 7 -7 16 -41
20 -75 3 -34 14 -91 23 -127 15 -60 22 -92 41 -190 4 -19 10 -40 15 -46 5 -6
11 -28 15 -50 3 -21 10 -41 15 -42 5 -2 9 -17 9 -32 0 -16 5 -32 10 -35 6 -3
10 -17 10 -31 0 -13 4 -32 9 -42 4 -9 16 -35 26 -57 9 -22 21 -48 26 -57 5
-10 9 -25 9 -33 0 -14 9 -35 32 -75 4 -8 11 -22 14 -30 10 -26 75 -163 99
-210 59 -116 71 -135 78 -138 4 -2 7 -8 7 -13 0 -6 16 -35 35 -65 19 -30 35
-58 35 -62 0 -4 11 -19 25 -34 14 -15 25 -30 25 -33 0 -6 83 -126 105 -152 5
-7 15 -18 20 -25 6 -8 32 -43 60 -78 27 -36 52 -67 55 -70 3 -3 41 -45 85 -95
86 -97 188 -199 274 -273 29 -26 66 -59 81 -73 15 -14 43 -37 61 -50 19 -13
41 -31 50 -39 48 -45 223 -170 238 -170 6 0 11 -4 11 -10 0 -5 5 -10 11 -10 6
0 25 -11 43 -25 18 -14 38 -25 44 -25 7 0 12 -4 12 -9 0 -5 8 -11 18 -14 19
-6 94 -49 102 -58 3 -3 24 -14 48 -24 23 -11 42 -22 42 -27 0 -4 9 -8 20 -8
11 0 20 -4 20 -10 0 -5 8 -10 18 -11 9 0 31 -9 47 -20 17 -10 37 -21 45 -25
44 -17 67 -27 82 -35 10 -5 24 -9 32 -9 7 0 19 -7 26 -15 7 -8 21 -15 31 -15
11 0 29 -5 42 -12 47 -24 57 -28 75 -28 10 0 27 -7 38 -15 10 -8 29 -15 41
-15 12 0 25 -4 28 -10 3 -5 19 -10 35 -10 16 0 32 -4 35 -10 3 -5 17 -10 29
-10 13 0 37 -7 52 -15 16 -8 41 -15 56 -15 15 0 30 -4 33 -10 3 -5 24 -10 45
-10 21 0 42 -5 45 -10 3 -6 28 -10 54 -10 26 0 51 -3 55 -8 10 -10 135 -32
231 -40 44 -4 90 -13 102 -20 17 -9 244 -12 1010 -12 853 1 991 3 1007 15 12
9 42 15 72 15 29 0 55 4 59 9 3 5 30 13 60 16 31 4 58 11 61 16 3 5 25 9 49 9
24 0 47 4 50 10 3 5 21 10 40 10 19 0 36 4 39 9 3 5 18 11 33 14 30 5 87 24
115 38 10 5 27 9 38 9 11 0 28 4 38 9 9 4 35 16 57 26 22 9 48 21 57 26 10 5
25 9 33 9 8 0 23 4 33 9 9 5 44 21 77 36 33 15 68 31 77 36 10 5 24 9 32 9 8
0 16 4 18 8 2 4 39 26 83 48 86 43 127 66 135 74 9 9 85 51 103 57 9 3 17 9
17 14 0 5 5 9 10 9 10 0 245 162 299 206 31 24 165 139 210 179 72 64 211 204
287 290 43 50 81 92 84 95 3 3 18 23 35 45 16 22 38 49 48 60 10 11 26 32 35
48 9 15 20 27 24 27 4 0 8 4 8 10 0 5 27 48 60 95 33 47 60 90 60 95 0 6 5 10
10 10 6 0 10 5 10 12 0 6 11 26 25 44 14 18 25 40 25 48 0 9 3 16 8 16 4 0 12
10 18 23 35 72 98 188 105 193 5 3 9 12 9 20 0 9 16 50 36 92 19 42 40 88 46
102 6 14 14 33 19 42 5 10 9 24 9 32 0 8 8 29 17 48 31 62 33 68 33 93 0 14 5
25 10 25 6 0 10 15 10 34 0 19 5 36 10 38 6 2 12 17 15 33 2 17 8 44 14 60 24
75 31 103 31 125 0 13 4 37 9 54 32 105 41 148 41 187 0 24 7 53 15 63 13 17
15 99 15 551 0 407 -3 534 -12 543 -7 7 -16 41 -20 75 -3 34 -14 91 -23 127
-15 60 -22 92 -41 190 -4 19 -10 40 -15 46 -5 6 -11 28 -15 50 -3 21 -10 41
-15 42 -5 2 -9 17 -9 32 0 16 -4 32 -10 35 -5 3 -10 17 -10 31 0 13 -4 32 -10
42 -5 9 -16 35 -25 57 -9 22 -21 48 -26 57 -5 10 -9 25 -9 33 0 14 -9 35 -32
75 -4 8 -11 22 -14 30 -15 40 -28 68 -42 95 -9 17 -19 37 -22 45 -9 18 -50 99
-82 160 -12 25 -26 47 -30 48 -5 2 -8 8 -8 13 0 6 -16 35 -35 65 -19 30 -35
56 -35 59 0 5 -137 201 -155 222 -5 7 -14 18 -20 25 -88 115 -116 150 -150
188 -145 161 -226 243 -324 328 -29 26 -66 59 -81 73 -15 14 -43 37 -61 50
-19 13 -41 31 -50 39 -48 45 -223 170 -238 170 -6 0 -11 5 -11 10 0 6 -5 10
-11 10 -6 0 -25 11 -43 25 -18 14 -38 25 -44 25 -7 0 -12 4 -12 9 0 5 -8 11
-17 14 -19 6 -95 48 -103 58 -3 3 -22 13 -42 22 -20 10 -40 22 -43 27 -3 6
-15 10 -26 10 -10 0 -19 5 -19 10 0 6 -8 10 -17 11 -10 0 -31 9 -48 20 -16 10
-37 21 -45 25 -44 17 -67 27 -82 35 -10 5 -24 9 -32 9 -7 0 -19 7 -26 15 -7 8
-21 15 -31 15 -11 0 -28 5 -39 10 -11 6 -29 15 -40 20 -11 6 -28 10 -38 10
-10 0 -27 7 -38 15 -10 8 -29 15 -41 15 -12 0 -25 5 -28 10 -3 6 -19 10 -35
10 -16 0 -32 5 -35 10 -3 6 -17 10 -29 10 -13 0 -37 7 -52 15 -16 8 -41 15
-56 15 -15 0 -30 5 -33 10 -3 6 -24 10 -45 10 -21 0 -42 5 -45 10 -3 6 -28 10
-54 10 -26 0 -51 3 -55 8 -10 10 -135 32 -231 40 -44 4 -90 13 -102 20 -34 19
-689 16 -723 -3 -36 -20 -183 -20 -200 0 -19 22 -1065 22 -1094 0z m849 -44
c126 -6 144 -14 60 -25 -102 -14 -126 -19 -131 -27 -3 -5 -24 -9 -47 -9 -23
-1 -60 -7 -82 -15 -22 -8 -61 -15 -87 -15 -26 0 -50 -4 -53 -10 -3 -5 -26 -10
-50 -10 -24 0 -47 -4 -50 -10 -3 -5 -19 -10 -34 -10 -15 0 -36 -7 -47 -15 -10
-8 -33 -15 -51 -15 -17 0 -35 -4 -38 -10 -3 -5 -19 -10 -36 -10 -16 0 -29 -4
-29 -10 0 -5 -13 -10 -29 -10 -16 0 -34 -7 -41 -15 -7 -8 -21 -15 -31 -15 -11
0 -27 -4 -37 -9 -9 -5 -28 -13 -42 -19 -31 -12 -127 -56 -200 -91 -30 -14 -56
-29 -58 -33 -2 -5 -12 -8 -23 -8 -10 0 -19 -4 -19 -10 0 -5 -9 -10 -20 -10
-11 0 -20 -4 -20 -8 0 -5 -18 -17 -40 -28 -22 -10 -40 -22 -40 -26 0 -5 -5 -8
-12 -8 -6 0 -26 -11 -44 -25 -18 -14 -36 -25 -39 -25 -9 0 -165 -108 -186
-129 -9 -9 -40 -34 -69 -56 -126 -97 -312 -282 -444 -440 -81 -99 -83 -101
-95 -123 -6 -11 -17 -26 -24 -34 -19 -19 -87 -117 -87 -124 0 -4 -15 -27 -33
-53 -18 -25 -43 -67 -56 -94 -13 -26 -30 -52 -38 -58 -7 -6 -13 -20 -13 -30 0
-11 -4 -19 -10 -19 -5 0 -10 -8 -11 -17 0 -10 -9 -31 -20 -48 -10 -16 -21 -37
-25 -45 -3 -8 -9 -24 -14 -35 -4 -11 -19 -44 -34 -73 -14 -30 -26 -62 -26 -72
0 -11 -4 -22 -10 -25 -5 -3 -10 -17 -10 -31 0 -13 -4 -24 -10 -24 -5 0 -10
-13 -10 -29 0 -16 -7 -34 -15 -41 -8 -7 -15 -25 -15 -41 0 -15 -4 -30 -9 -33
-5 -3 -11 -20 -14 -38 -11 -63 -24 -113 -35 -135 -7 -12 -12 -37 -12 -57 0
-19 -4 -38 -10 -41 -5 -3 -10 -30 -10 -60 0 -30 -4 -57 -10 -60 -5 -3 -10 -34
-10 -68 0 -34 -5 -78 -11 -97 -10 -34 -25 -121 -35 -210 -3 -25 -9 -54 -14
-65 -5 -11 -11 -54 -14 -95 -3 -41 -9 -100 -15 -130 -13 -72 -13 -611 0 -675
6 -27 12 -84 15 -125 3 -41 9 -84 14 -95 11 -26 18 -81 29 -230 4 -66 13 -133
20 -148 6 -16 11 -57 11 -92 0 -35 5 -67 10 -70 6 -3 10 -30 10 -60 0 -30 5
-57 10 -60 6 -3 10 -23 10 -43 0 -21 6 -46 14 -57 7 -11 16 -36 19 -55 4 -19
9 -52 13 -73 3 -20 10 -40 15 -43 5 -3 9 -15 9 -28 0 -12 7 -31 15 -42 8 -10
15 -28 15 -40 0 -11 3 -24 7 -28 10 -9 33 -78 33 -98 0 -10 3 -18 8 -18 4 0
15 -21 25 -48 10 -26 23 -55 28 -64 5 -10 9 -23 9 -29 0 -6 7 -17 15 -26 8 -8
13 -19 9 -24 -3 -5 2 -12 10 -15 9 -3 16 -12 16 -20 0 -14 16 -46 36 -74 6 -8
28 -46 49 -85 21 -38 57 -98 81 -133 24 -35 44 -66 44 -71 0 -4 8 -16 18 -27
9 -10 30 -37 46 -59 17 -22 33 -42 36 -45 3 -3 19 -23 36 -45 62 -85 325 -355
413 -425 24 -19 60 -48 80 -65 21 -16 54 -41 74 -55 20 -14 37 -28 37 -32 0
-5 7 -8 15 -8 8 0 15 -4 15 -10 0 -5 5 -10 11 -10 6 0 17 -6 24 -12 30 -27 44
-38 49 -38 3 0 30 -16 60 -35 30 -19 59 -35 65 -35 5 0 11 -3 13 -7 5 -11 234
-131 318 -165 47 -20 95 -41 112 -49 10 -5 27 -9 37 -9 11 0 23 -5 26 -10 3
-5 16 -10 28 -10 12 0 31 -7 41 -15 11 -8 30 -15 42 -15 13 0 26 -4 29 -10 3
-5 22 -10 41 -10 19 0 34 -4 34 -10 0 -16 -162 -12 -210 5 -23 8 -69 15 -101
15 -32 0 -61 5 -64 10 -3 6 -30 10 -60 10 -30 0 -57 5 -60 10 -3 6 -23 10 -43
10 -20 1 -48 7 -62 15 -14 8 -39 14 -57 15 -17 0 -35 5 -38 10 -3 6 -21 10
-40 10 -19 0 -37 5 -40 10 -3 6 -19 10 -34 10 -15 0 -36 7 -47 15 -10 8 -29
15 -41 15 -12 0 -25 5 -28 10 -3 6 -17 10 -31 10 -13 0 -32 4 -42 9 -9 5 -28
13 -42 19 -64 27 -107 45 -127 53 -13 5 -33 13 -45 18 -13 5 -30 12 -38 15 -8
3 -22 10 -30 15 -8 5 -41 21 -72 36 -32 14 -60 30 -63 36 -4 5 -15 9 -26 9
-10 0 -19 3 -19 8 0 4 -19 16 -41 27 -67 32 -79 39 -79 47 0 5 -9 8 -20 8 -11
0 -20 5 -20 10 0 6 -5 10 -11 10 -6 0 -25 11 -43 25 -18 14 -38 25 -44 25 -7
0 -12 5 -12 10 0 6 -4 10 -10 10 -12 0 -154 100 -158 112 -2 4 -8 8 -13 8 -5
0 -17 6 -26 14 -10 8 -38 31 -63 52 -177 144 -340 299 -441 419 -19 22 -41 47
-49 55 -21 20 -129 156 -160 200 -13 19 -27 37 -30 40 -4 3 -15 20 -25 37 -11
18 -23 33 -27 33 -4 0 -8 5 -8 11 0 6 -16 33 -35 59 -19 26 -35 53 -35 59 0 6
-4 11 -9 11 -5 0 -11 8 -15 18 -3 9 -17 35 -31 57 -13 22 -35 60 -47 85 -13
25 -26 47 -30 48 -5 2 -8 9 -8 16 0 16 -49 114 -61 122 -5 3 -9 14 -9 25 0 10
-4 19 -10 19 -5 0 -10 11 -10 25 0 14 -4 25 -10 25 -5 0 -10 6 -10 14 0 8 -6
27 -14 43 -8 15 -19 39 -24 53 -5 14 -15 38 -21 53 -6 15 -11 37 -11 47 0 11
-4 20 -10 20 -5 0 -12 16 -16 35 -3 19 -10 38 -15 41 -5 3 -9 18 -9 35 0 16
-4 29 -10 29 -5 0 -10 12 -10 26 0 29 -28 124 -41 139 -5 5 -9 25 -9 45 0 20
-4 40 -9 46 -5 5 -11 27 -15 49 -16 117 -24 164 -32 176 -17 28 -47 418 -47
604 1 184 31 558 47 583 8 14 22 91 33 185 3 26 9 47 14 47 5 0 9 17 9 38 0
21 4 42 9 48 10 9 29 76 38 132 3 18 9 35 14 38 5 3 9 16 9 29 0 13 5 27 10
30 6 3 10 14 10 23 0 9 7 30 15 46 8 15 15 37 15 47 0 10 5 21 10 24 6 3 10
17 10 31 0 13 5 24 10 24 6 0 10 7 10 15 0 18 32 89 43 93 4 2 7 15 7 28 0 13
5 24 10 24 6 0 10 8 10 19 0 10 7 24 15 31 8 7 13 16 10 20 -3 4 2 13 10 20 8
7 15 21 15 31 0 11 5 19 10 19 6 0 10 7 10 15 0 9 10 32 23 53 13 20 26 44 30
52 4 8 18 33 32 55 14 22 28 47 32 55 14 30 97 155 105 158 4 2 8 8 8 13 0 6
5 15 10 22 6 7 29 37 51 67 22 30 48 64 57 75 9 11 30 38 46 60 17 22 37 47
46 55 8 8 40 44 70 80 100 119 294 303 425 405 21 17 43 35 49 40 34 32 195
142 371 252 11 7 36 20 55 30 19 9 37 20 40 23 3 4 12 10 20 13 8 4 29 16 45
26 17 11 38 20 48 20 9 1 17 6 17 11 0 6 8 10 19 10 10 0 24 7 31 15 7 8 18
15 25 15 7 0 33 10 57 21 23 12 52 25 63 30 50 20 102 41 117 50 10 5 27 9 37
9 11 0 23 5 26 10 3 6 16 10 28 10 12 0 31 7 41 15 11 8 30 15 42 15 13 0 26
5 29 10 3 6 21 10 40 10 19 0 37 5 40 10 3 6 19 10 34 10 15 0 36 7 47 15 10
8 36 15 56 15 20 0 40 5 43 10 3 6 26 10 50 10 24 0 47 5 50 10 3 6 26 10 51
10 25 0 55 6 67 12 26 15 122 26 314 36 78 5 146 12 150 16 7 8 92 5 438 -13z
m1085 -20 c80 -4 158 -13 173 -19 16 -7 55 -12 87 -12 32 0 62 -4 65 -10 3 -5
30 -10 60 -10 30 0 57 -4 60 -10 3 -5 23 -10 43 -10 20 -1 48 -7 62 -15 14 -8
39 -14 57 -15 17 0 35 -4 38 -10 3 -5 21 -10 40 -10 19 0 37 -4 40 -10 3 -5
19 -10 34 -10 15 0 36 -7 47 -15 10 -8 29 -15 41 -15 12 0 25 -4 28 -10 3 -5
19 -10 36 -10 16 0 29 -4 29 -10 0 -5 9 -10 20 -10 11 0 28 -4 38 -10 16 -9
73 -33 117 -50 11 -4 31 -12 45 -18 14 -5 32 -13 40 -16 8 -3 22 -10 30 -15 8
-5 41 -21 72 -36 32 -14 60 -30 63 -36 4 -5 15 -9 26 -9 10 0 19 -3 19 -8 0
-4 19 -16 41 -27 67 -32 79 -39 79 -47 0 -5 9 -8 20 -8 11 0 20 -4 20 -10 0
-5 5 -10 11 -10 6 0 25 -11 43 -25 18 -14 38 -25 44 -25 7 0 12 -4 12 -10 0
-5 4 -10 10 -10 12 0 154 -100 158 -112 2 -4 8 -8 13 -8 5 0 17 -6 26 -14 10
-8 38 -31 63 -52 89 -72 175 -148 298 -264 21 -19 107 -112 189 -205 64 -72
99 -117 155 -195 17 -25 35 -47 38 -50 4 -3 15 -20 25 -37 11 -18 23 -33 27
-33 4 0 8 -5 8 -11 0 -6 16 -33 35 -59 19 -26 35 -53 35 -59 0 -6 4 -11 9 -11
5 0 11 -8 15 -17 3 -10 17 -36 31 -58 13 -22 35 -60 47 -85 13 -25 26 -46 31
-48 4 -2 7 -9 7 -16 0 -16 49 -114 61 -122 5 -3 9 -14 9 -25 0 -10 5 -19 10
-19 6 0 10 -11 10 -25 0 -14 5 -25 10 -25 6 0 10 -6 10 -14 0 -8 6 -27 14 -43
8 -15 19 -39 24 -53 5 -14 15 -38 21 -53 6 -15 11 -37 11 -47 0 -11 4 -20 10
-20 5 0 12 -16 16 -35 3 -19 10 -38 15 -41 5 -3 9 -18 9 -35 0 -16 5 -29 10
-29 6 0 10 -12 10 -26 0 -29 28 -124 41 -138 5 -6 9 -26 9 -46 0 -20 4 -40 9
-46 5 -5 11 -27 15 -49 16 -117 24 -164 32 -176 17 -28 47 -401 47 -594 0
-190 -30 -567 -47 -593 -8 -13 -16 -58 -32 -177 -4 -22 -10 -44 -15 -49 -5 -6
-9 -26 -9 -46 0 -20 -4 -40 -9 -45 -10 -10 -29 -77 -38 -133 -3 -18 -9 -35
-14 -38 -5 -3 -9 -16 -9 -29 0 -13 -4 -27 -10 -30 -5 -3 -10 -14 -10 -23 0 -9
-7 -30 -15 -46 -8 -15 -15 -37 -15 -47 0 -10 -4 -21 -10 -24 -5 -3 -10 -17
-10 -31 0 -13 -4 -24 -10 -24 -5 0 -10 -7 -10 -16 0 -9 -7 -30 -16 -47 -31
-58 -34 -67 -34 -82 0 -8 -4 -15 -10 -15 -5 0 -10 -8 -10 -19 0 -10 -7 -24
-15 -31 -8 -7 -13 -16 -10 -20 3 -4 -2 -13 -10 -20 -8 -7 -15 -21 -15 -31 0
-11 -4 -19 -10 -19 -5 0 -10 -8 -11 -17 0 -10 -9 -31 -19 -48 -10 -16 -31 -52
-45 -80 -15 -27 -33 -57 -41 -66 -8 -8 -14 -18 -14 -22 0 -10 -93 -152 -102
-155 -4 -2 -8 -8 -8 -14 0 -5 -6 -16 -12 -23 -7 -8 -24 -30 -38 -50 -35 -51
-142 -187 -160 -205 -8 -8 -40 -44 -70 -80 -30 -36 -93 -103 -140 -150 -73
-73 -111 -108 -230 -210 -10 -8 -34 -28 -55 -45 -20 -16 -42 -35 -49 -40 -40
-37 -198 -144 -371 -252 -11 -7 -36 -20 -55 -30 -19 -9 -37 -20 -40 -23 -3 -4
-12 -10 -20 -13 -8 -4 -28 -16 -45 -26 -16 -11 -38 -20 -47 -20 -10 -1 -18 -5
-18 -11 0 -5 -8 -10 -19 -10 -10 0 -24 -7 -31 -15 -7 -8 -18 -15 -25 -15 -7 0
-33 -10 -57 -21 -23 -12 -52 -25 -63 -30 -50 -20 -102 -41 -117 -50 -10 -5
-27 -9 -37 -9 -11 0 -23 -5 -26 -10 -3 -6 -16 -10 -28 -10 -12 0 -31 -7 -41
-15 -11 -8 -30 -15 -42 -15 -13 0 -26 -4 -29 -10 -3 -5 -21 -10 -40 -10 -19 0
-37 -4 -40 -10 -3 -5 -18 -10 -33 -10 -15 0 -36 -7 -46 -15 -11 -8 -37 -15
-57 -15 -21 0 -41 -4 -44 -10 -3 -5 -26 -10 -50 -10 -24 0 -47 -5 -50 -10 -3
-6 -26 -10 -51 -10 -25 0 -55 -6 -67 -12 -40 -23 -405 -49 -392 -29 3 6 24 11
46 11 21 0 39 5 39 10 0 6 15 10 34 10 19 0 38 4 41 10 3 5 16 10 29 10 12 0
31 7 42 15 10 8 29 15 41 15 12 0 25 5 28 10 3 6 15 10 26 10 10 0 27 4 37 9
9 4 35 16 57 26 22 9 48 21 57 26 10 5 25 9 33 9 8 0 15 5 15 10 0 6 6 10 13
10 7 0 50 20 97 44 47 25 102 53 123 63 20 10 37 21 37 25 0 5 6 8 13 8 6 0
52 27 101 60 49 33 93 60 98 60 4 0 8 5 8 10 0 6 7 10 15 10 8 0 15 3 15 8 0
4 17 18 37 32 20 14 41 30 47 35 6 6 29 24 51 40 118 88 379 351 477 480 12
17 25 32 28 35 3 3 23 30 45 60 22 30 43 57 47 58 5 2 8 8 8 14 0 5 11 24 25
42 14 18 25 38 25 44 0 7 4 12 9 12 5 0 16 15 25 32 9 18 28 51 42 73 13 22
29 49 34 60 6 11 19 34 29 50 11 17 20 38 20 48 1 9 6 17 11 17 6 0 10 9 10
19 0 11 4 22 9 26 11 6 41 63 41 77 0 5 11 33 24 61 13 29 30 70 37 92 7 22
17 44 21 50 4 5 8 18 8 30 0 11 7 29 15 39 8 11 15 30 15 42 0 13 5 26 10 29
6 3 10 21 10 40 0 19 5 37 10 40 6 3 10 19 10 34 0 16 7 42 15 57 8 16 15 43
15 61 0 17 4 35 10 38 6 3 10 30 10 60 0 30 5 57 10 60 6 3 10 34 10 68 0 34
7 84 15 110 12 41 14 178 14 870 0 572 -3 834 -11 862 -6 22 -13 72 -15 110
-3 39 -9 74 -14 80 -5 5 -9 33 -9 61 0 29 -4 56 -10 59 -5 3 -10 20 -10 37 0
16 -6 44 -14 61 -14 31 -21 63 -33 140 -3 20 -9 37 -14 37 -5 0 -9 13 -9 29 0
16 -7 34 -15 41 -8 7 -15 25 -15 41 0 16 -4 29 -10 29 -5 0 -10 11 -10 24 0
14 -4 28 -10 31 -5 3 -10 17 -10 29 0 13 -7 29 -15 36 -8 7 -15 19 -15 26 0 8
-4 22 -9 32 -8 15 -18 38 -35 82 -4 8 -15 29 -25 45 -11 17 -20 38 -20 48 -1
9 -5 17 -9 17 -4 0 -13 12 -20 28 -17 39 -63 120 -97 172 -17 25 -34 52 -40
61 -33 53 -70 105 -82 117 -7 7 -13 17 -13 21 0 4 -8 16 -18 27 -9 10 -46 55
-81 98 -141 175 -306 337 -485 476 -10 8 -26 22 -35 30 -30 28 -150 110 -160
110 -6 0 -11 5 -11 10 0 6 -5 10 -11 10 -6 0 -25 11 -43 25 -18 14 -38 25 -44
25 -7 0 -12 4 -12 9 0 5 -8 11 -17 14 -25 8 -97 50 -101 60 -2 4 -10 7 -18 7
-8 0 -31 10 -52 23 -20 12 -48 27 -62 33 -56 25 -146 66 -162 75 -10 5 -27 9
-38 9 -11 0 -20 5 -20 10 0 6 -11 10 -24 10 -13 0 -29 7 -36 15 -7 8 -25 15
-41 15 -15 0 -31 5 -34 10 -3 6 -17 10 -30 10 -13 0 -27 5 -30 10 -3 6 -21 10
-38 10 -18 0 -41 7 -51 15 -11 8 -32 15 -47 15 -15 0 -31 5 -34 10 -3 6 -26
10 -50 10 -24 0 -47 5 -50 10 -3 6 -29 10 -56 10 -28 0 -58 4 -68 10 -10 5
-43 14 -72 19 -149 27 -157 32 -79 47 65 13 118 12 440 -5z m-690 -82 c41 -6
125 -15 185 -19 143 -12 198 -20 209 -31 6 -5 18 -9 27 -9 10 0 32 -8 51 -17
60 -30 68 -33 83 -33 8 0 23 -4 33 -9 15 -8 62 -28 117 -50 100 -40 144 -61
150 -71 3 -6 15 -10 26 -10 10 0 19 -4 19 -10 0 -5 8 -10 18 -11 9 0 31 -9 47
-19 17 -11 46 -27 65 -37 19 -9 37 -19 40 -22 9 -10 43 -30 83 -48 20 -10 37
-21 37 -25 0 -5 4 -8 10 -8 9 0 279 -185 290 -199 3 -3 23 -19 45 -36 22 -16
45 -34 51 -40 6 -5 40 -35 75 -65 136 -117 333 -325 455 -480 67 -86 71 -91
139 -191 28 -41 53 -75 58 -77 4 -2 7 -8 7 -13 0 -9 48 -88 60 -99 6 -5 18
-28 92 -175 17 -33 34 -67 39 -75 5 -8 12 -23 15 -32 4 -10 10 -18 15 -18 5 0
9 -11 9 -25 0 -14 5 -25 10 -25 6 0 10 -7 10 -14 0 -8 11 -36 25 -62 14 -26
25 -55 25 -65 0 -11 5 -19 10 -19 6 0 10 -9 10 -20 0 -20 2 -27 33 -88 9 -19
17 -45 17 -58 0 -13 5 -24 10 -24 6 0 10 -13 10 -29 0 -17 5 -33 10 -36 6 -3
10 -19 10 -34 0 -15 7 -36 15 -47 8 -10 15 -33 15 -51 0 -17 5 -35 10 -38 6
-3 10 -21 10 -39 0 -17 4 -36 9 -41 5 -6 11 -30 14 -55 3 -25 13 -79 22 -120
9 -41 19 -104 22 -140 2 -36 9 -69 14 -74 5 -6 9 -80 8 -165 0 -97 -4 -148 -9
-136 -5 11 -9 34 -9 52 -1 17 -5 35 -11 38 -5 3 -10 21 -10 40 0 19 -4 37 -10
40 -5 3 -10 16 -10 29 0 12 -7 31 -15 42 -8 10 -15 28 -15 40 0 11 -4 24 -8
30 -4 5 -14 27 -21 49 -7 22 -24 63 -37 92 -13 28 -24 56 -24 61 0 14 -30 71
-41 77 -5 4 -9 15 -9 26 0 10 -4 19 -10 19 -5 0 -10 8 -11 18 0 9 -9 31 -20
47 -10 17 -23 39 -29 50 -5 11 -21 38 -35 60 -14 22 -32 55 -42 73 -9 17 -20
32 -25 32 -4 0 -8 5 -8 12 0 6 -11 26 -25 44 -14 18 -25 37 -25 42 0 6 -3 12
-8 14 -4 2 -25 28 -47 58 -22 30 -42 57 -45 60 -3 3 -16 19 -28 35 -94 124
-364 395 -477 480 -22 16 -45 34 -51 40 -6 5 -27 21 -47 35 -20 14 -37 28 -37
33 0 4 -7 7 -15 7 -8 0 -15 5 -15 10 0 6 -5 10 -11 10 -6 0 -38 20 -72 43 -34
24 -69 47 -77 50 -17 8 -52 29 -60 37 -15 15 -243 130 -258 130 -7 0 -12 5
-12 10 0 6 -7 10 -15 10 -8 0 -23 4 -33 9 -9 4 -35 16 -57 26 -22 9 -48 21
-57 26 -10 5 -27 9 -37 9 -11 0 -23 5 -26 10 -3 6 -14 10 -24 10 -10 0 -32 7
-47 15 -16 8 -37 15 -46 15 -9 0 -20 5 -23 10 -3 6 -22 10 -41 10 -19 0 -34 4
-34 9 0 5 -17 11 -37 14 -71 10 -148 29 -157 38 -6 5 -33 9 -61 9 -28 0 -55 4
-61 9 -16 17 -152 23 -499 23 -347 0 -483 -6 -499 -23 -6 -5 -30 -9 -54 -9
-24 0 -67 -7 -96 -16 -94 -29 -112 -34 -139 -34 -15 0 -27 -4 -27 -10 0 -5
-15 -10 -34 -10 -19 0 -38 -4 -41 -10 -3 -5 -14 -10 -23 -10 -9 0 -30 -7 -46
-15 -15 -8 -37 -15 -47 -15 -10 0 -21 -4 -24 -10 -3 -5 -15 -10 -26 -10 -10 0
-27 -4 -37 -9 -18 -9 -71 -32 -112 -49 -60 -24 -310 -151 -320 -163 -3 -3 -12
-8 -20 -12 -19 -9 -42 -23 -103 -64 -26 -18 -52 -33 -57 -33 -6 0 -10 -4 -10
-10 0 -5 -7 -10 -15 -10 -8 0 -15 -4 -15 -10 0 -5 -7 -10 -15 -10 -8 0 -15 -3
-15 -7 0 -5 -17 -19 -37 -33 -20 -14 -41 -30 -47 -35 -6 -6 -29 -24 -51 -40
-115 -86 -386 -357 -469 -470 -17 -22 -33 -42 -36 -45 -3 -3 -19 -23 -36 -45
-16 -22 -37 -49 -46 -59 -10 -11 -18 -23 -18 -27 0 -5 -20 -36 -44 -71 -24
-35 -60 -94 -81 -133 -21 -38 -43 -77 -49 -85 -21 -28 -36 -60 -36 -75 0 -8
-4 -15 -9 -15 -5 0 -12 -11 -15 -25 -4 -14 -11 -25 -16 -25 -6 0 -10 -7 -10
-15 0 -8 -4 -23 -9 -33 -6 -9 -17 -38 -27 -64 -9 -27 -21 -48 -25 -48 -5 0 -9
-8 -9 -17 0 -21 -23 -90 -33 -99 -4 -4 -7 -17 -7 -28 0 -12 -7 -30 -15 -40 -8
-11 -15 -30 -15 -42 0 -13 -4 -26 -10 -29 -5 -3 -10 -16 -10 -27 0 -12 -4 -35
-10 -52 -5 -17 -13 -49 -17 -71 -6 -35 -8 -27 -17 60 -13 137 -13 391 2 500
17 133 23 165 33 171 5 3 9 20 9 37 0 18 7 41 15 51 8 11 15 32 15 48 0 15 5
28 10 28 6 0 10 13 10 29 0 17 5 33 10 36 6 3 10 16 10 28 0 13 6 31 13 42 7
11 19 40 27 65 7 25 17 49 22 55 4 5 8 15 8 22 0 7 11 36 25 65 14 28 25 58
25 65 0 7 5 13 10 13 6 0 10 6 10 13 0 18 28 75 41 82 5 4 9 15 9 26 0 10 5
19 10 19 6 0 10 9 10 20 0 11 5 20 10 20 6 0 10 9 10 19 0 11 5 23 11 26 5 4
14 17 19 28 6 12 21 40 35 62 14 22 28 47 32 55 13 27 97 155 115 174 10 11
18 22 18 26 0 3 21 32 46 65 25 33 58 77 74 98 28 37 94 115 175 207 67 76
219 221 316 302 24 21 58 49 74 63 17 14 42 33 58 43 15 9 27 20 27 24 0 4 7
8 15 8 8 0 15 4 15 8 0 8 175 132 187 132 3 0 21 11 39 25 18 14 37 25 43 25
6 0 11 3 11 8 0 4 19 16 41 27 67 32 79 39 79 47 0 5 9 8 20 8 11 0 20 5 20
10 0 6 9 10 20 10 11 0 20 3 20 8 0 6 68 40 130 66 8 3 22 10 30 14 40 23 61
32 75 32 8 0 15 5 15 10 0 6 9 10 20 10 11 0 28 4 38 10 9 5 35 16 57 25 22 9
48 21 57 26 10 5 29 9 43 9 14 0 25 3 25 8 0 4 28 15 63 25 34 10 72 23 85 28
13 5 36 9 52 9 16 0 32 5 35 10 3 6 36 10 73 11 37 0 114 7 172 14 136 16 170
17 260 4z m880 -165 c0 -2 -9 -4 -21 -4 -11 0 -18 4 -14 10 5 8 35 3 35 -6z
m-2005 -24 c-3 -5 -13 -10 -21 -10 -8 0 -12 5 -9 10 3 6 13 10 21 10 8 0 12
-4 9 -10z m2073 1 c9 -5 31 -14 47 -21 17 -6 43 -18 58 -26 16 -8 35 -14 43
-14 8 0 14 -4 14 -10 0 -5 6 -10 13 -10 8 0 60 -24 116 -52 56 -29 110 -57
121 -63 11 -5 20 -13 20 -17 0 -5 9 -8 20 -8 11 0 20 -4 20 -10 0 -5 5 -10 11
-10 6 0 25 -11 43 -25 18 -14 38 -25 44 -25 7 0 12 -4 12 -10 0 -5 5 -10 11
-10 11 0 82 -50 87 -62 2 -5 8 -8 14 -8 5 0 15 -6 23 -12 7 -7 25 -22 40 -32
14 -11 36 -28 48 -39 12 -10 38 -31 57 -45 39 -31 298 -287 351 -347 19 -22
48 -58 64 -80 17 -22 36 -46 43 -53 25 -27 142 -200 142 -211 0 -6 4 -11 8
-11 5 0 14 -10 20 -22 7 -13 27 -50 46 -83 19 -33 58 -107 86 -165 28 -58 56
-113 61 -122 5 -10 9 -25 9 -33 0 -8 4 -15 9 -15 5 0 12 -16 15 -35 4 -19 11
-35 16 -35 6 0 10 -11 10 -24 0 -14 5 -28 10 -31 6 -3 10 -17 10 -30 0 -13 5
-27 10 -30 6 -3 10 -19 10 -34 0 -16 6 -34 14 -40 8 -6 17 -27 20 -46 3 -19 9
-51 12 -70 3 -19 10 -38 15 -41 5 -3 9 -22 9 -43 0 -21 3 -41 8 -45 10 -11 33
-120 38 -186 4 -40 2 -51 -5 -40 -6 8 -11 29 -11 47 0 17 -4 35 -10 38 -5 3
-10 16 -10 28 0 12 -7 35 -15 51 -8 15 -15 39 -15 52 0 13 -4 24 -10 24 -5 0
-10 13 -10 29 0 17 -4 33 -10 36 -5 3 -10 13 -10 22 0 14 -20 66 -41 105 -5
10 -9 27 -9 37 0 11 -4 23 -10 26 -5 3 -10 15 -10 26 0 10 -4 19 -10 19 -5 0
-10 4 -10 10 0 9 -43 110 -60 140 -12 20 -90 169 -104 197 -6 13 -14 23 -18
23 -5 0 -8 7 -8 16 0 8 -11 30 -25 48 -14 18 -25 38 -25 44 0 7 -4 12 -10 12
-5 0 -10 5 -10 12 0 6 -11 26 -25 44 -14 18 -25 37 -25 43 0 6 -3 11 -7 11 -5
0 -21 21 -38 48 -16 26 -32 49 -35 52 -3 3 -18 23 -35 45 -16 22 -31 42 -35
45 -3 3 -18 23 -35 45 -16 22 -32 42 -35 45 -3 3 -53 59 -111 125 -108 122
-165 178 -298 295 -41 36 -79 70 -85 75 -6 6 -29 24 -51 40 -22 17 -42 33 -45
36 -12 15 -280 199 -290 199 -5 0 -10 3 -10 8 0 4 -18 16 -40 26 -22 11 -40
23 -40 28 0 4 -9 8 -20 8 -11 0 -20 3 -20 8 0 4 -10 12 -23 18 -12 6 -53 27
-90 47 -38 20 -75 37 -82 37 -8 0 -17 5 -20 10 -8 12 29 13 53 1z m-2118 -15
c0 -2 -39 -24 -87 -47 -49 -24 -90 -46 -93 -49 -3 -3 -14 -10 -25 -16 -92 -50
-124 -69 -152 -90 -17 -13 -35 -24 -38 -24 -7 0 -183 -122 -220 -153 -11 -8
-40 -32 -65 -52 -180 -145 -319 -277 -455 -430 -38 -44 -79 -89 -90 -101 -11
-12 -29 -34 -40 -49 -11 -16 -26 -34 -32 -41 -16 -15 -203 -283 -203 -290 0
-8 -55 -89 -62 -92 -5 -2 -8 -12 -8 -22 0 -10 -3 -20 -7 -22 -9 -3 -25 -32
-97 -173 -33 -65 -52 -93 -54 -81 -2 10 0 21 6 25 5 3 13 21 17 39 3 17 11 32
16 32 5 0 9 7 9 15 0 8 4 23 9 33 5 9 32 64 61 122 111 225 234 415 387 601
89 107 278 293 393 387 36 29 74 61 85 70 37 31 157 112 166 112 5 0 9 5 9 10
0 6 5 10 12 10 6 0 26 11 44 25 18 14 37 25 42 25 6 0 12 3 14 8 3 8 37 27
182 101 55 28 105 51 113 51 7 0 13 5 13 10 0 6 6 10 14 10 13 0 34 9 96 41
16 9 40 11 40 5z m-1730 -1770 c0 -8 -4 -18 -10 -21 -5 -3 -10 3 -10 14 0 12
5 21 10 21 6 0 10 -6 10 -14z m-28 -68 c-7 -7 -12 -8 -12 -2 0 14 12 26 19 19
2 -3 -1 -11 -7 -17z m-30 -70 c-7 -7 -12 -8 -12 -2 0 14 12 26 19 19 2 -3 -1
-11 -7 -17z m5828 -543 c0 -23 -3 -27 -10 -15 -5 8 -10 29 -10 45 0 23 3 27
10 15 5 -8 10 -28 10 -45z m-6015 -692 c9 -47 25 -171 25 -198 0 -11 -4 -56
-9 -100 -5 -44 -10 -84 -11 -90 0 -5 -6 -1 -12 9 -15 26 -25 416 -11 416 6 0
14 -17 18 -37z m87 -450 c5 -27 12 -65 15 -85 3 -21 9 -38 14 -38 5 0 9 -12 9
-27 0 -16 7 -37 15 -47 8 -11 15 -30 15 -43 0 -13 5 -23 10 -23 6 0 10 -11 10
-24 0 -14 5 -28 10 -31 6 -3 10 -15 10 -25 0 -10 11 -40 25 -66 14 -26 25 -55
25 -65 0 -11 5 -19 10 -19 6 0 10 -7 10 -15 0 -9 11 -33 25 -55 14 -22 25 -46
25 -55 0 -8 5 -15 10 -15 6 0 10 -8 10 -19 0 -10 6 -24 13 -30 8 -6 24 -32 38
-58 13 -27 34 -62 46 -79 13 -17 23 -36 23 -42 0 -7 5 -12 10 -12 6 0 10 -4
10 -10 0 -8 94 -147 136 -200 151 -192 355 -402 499 -515 21 -16 54 -43 75
-60 20 -16 77 -57 126 -90 49 -33 91 -63 92 -67 2 -5 10 -8 18 -8 8 0 14 -3
14 -8 0 -4 19 -16 41 -27 67 -32 79 -39 79 -47 0 -5 9 -8 19 -8 11 0 21 -3 23
-7 3 -7 95 -55 198 -102 19 -9 37 -19 38 -23 2 -5 12 -8 23 -8 11 0 27 -4 37
-9 9 -5 31 -14 47 -21 17 -6 43 -18 58 -26 16 -8 39 -14 52 -14 13 0 27 -4 30
-10 3 -5 17 -10 30 -10 13 0 27 -4 30 -10 3 -5 19 -10 34 -10 15 0 36 -7 47
-15 10 -8 33 -15 51 -15 17 0 35 -5 38 -10 3 -5 26 -10 50 -10 24 0 47 -4 50
-10 3 -5 26 -10 51 -10 25 0 55 -6 67 -12 39 -22 176 -30 512 -30 336 0 473 8
512 30 12 6 42 12 67 12 25 0 48 5 51 10 3 6 26 10 50 10 24 0 47 4 50 10 3 5
21 10 38 10 18 0 41 7 51 15 11 8 32 15 47 15 15 0 31 5 34 10 3 6 17 10 30
10 13 0 27 5 30 10 3 6 17 10 30 10 13 0 36 6 52 14 15 8 42 20 58 26 17 7 38
16 47 21 10 5 26 9 37 9 11 0 21 3 23 8 2 4 19 14 38 23 103 47 195 95 198
102 2 4 12 7 23 7 10 0 19 4 19 9 0 5 8 11 18 15 9 3 35 17 57 31 22 14 47 28
55 32 8 4 17 9 20 12 3 3 48 35 100 70 52 35 102 71 111 80 26 25 59 51 65 51
3 0 11 6 19 12 7 7 41 38 76 68 133 115 295 288 423 450 32 41 136 191 136
196 0 4 15 27 33 53 18 25 43 67 56 94 13 26 30 52 38 58 7 6 13 20 13 30 0
11 5 19 10 19 6 0 10 8 11 18 0 9 9 31 20 47 10 17 21 37 25 45 17 44 27 67
35 82 5 10 9 24 9 32 0 7 7 19 15 26 8 7 15 23 15 36 0 12 5 26 10 29 6 3 10
17 10 31 0 13 5 24 10 24 6 0 10 13 10 29 0 16 7 34 15 41 8 7 15 25 15 41 0
15 4 30 9 33 5 3 11 20 14 38 27 158 41 181 33 53 -7 -112 -20 -208 -41 -305
-9 -41 -19 -93 -22 -115 -3 -22 -9 -44 -14 -49 -5 -6 -9 -27 -9 -47 0 -21 -4
-41 -10 -44 -6 -3 -10 -19 -10 -34 0 -15 -7 -36 -15 -47 -8 -10 -15 -33 -15
-51 0 -17 -4 -35 -10 -38 -6 -3 -10 -17 -10 -30 0 -13 -5 -27 -10 -30 -6 -3
-10 -16 -10 -29 0 -12 -7 -31 -15 -42 -8 -10 -15 -27 -15 -37 0 -9 -5 -27 -12
-40 -23 -44 -28 -57 -28 -67 0 -6 -11 -33 -25 -62 -14 -28 -25 -58 -25 -65 0
-7 -4 -13 -10 -13 -5 0 -10 -6 -10 -13 0 -18 -28 -75 -41 -82 -5 -4 -9 -15 -9
-26 0 -10 -4 -19 -10 -19 -5 0 -10 -9 -10 -20 0 -11 -4 -20 -10 -20 -5 0 -10
-9 -10 -19 0 -11 -4 -22 -9 -26 -6 -3 -16 -18 -24 -33 -44 -86 -149 -255 -174
-280 -7 -8 -18 -23 -24 -34 -26 -48 -169 -227 -294 -367 -71 -81 -183 -188
-305 -293 -30 -26 -68 -59 -85 -73 -16 -14 -42 -33 -57 -43 -16 -9 -28 -20
-28 -24 0 -4 -7 -8 -15 -8 -8 0 -15 -4 -15 -8 0 -9 -174 -132 -186 -132 -4 0
-22 -11 -40 -25 -18 -14 -37 -25 -43 -25 -6 0 -11 -3 -11 -8 0 -4 -19 -16 -41
-27 -67 -32 -79 -39 -79 -47 0 -5 -9 -8 -20 -8 -11 0 -20 -4 -20 -10 0 -5 -9
-10 -20 -10 -11 0 -20 -3 -20 -8 0 -6 -68 -40 -130 -66 -8 -3 -22 -10 -30 -14
-40 -23 -61 -32 -75 -32 -8 0 -15 -4 -15 -10 0 -5 -8 -10 -18 -10 -10 0 -42
-11 -70 -25 -29 -14 -58 -25 -66 -25 -8 0 -18 -5 -21 -10 -3 -6 -19 -10 -36
-10 -16 0 -29 -4 -29 -10 0 -5 -10 -10 -22 -10 -13 -1 -34 -7 -48 -15 -14 -8
-37 -14 -52 -15 -15 0 -30 -5 -33 -10 -3 -6 -21 -10 -40 -10 -19 0 -37 -4 -40
-10 -3 -5 -21 -10 -38 -10 -18 -1 -43 -7 -57 -15 -14 -8 -42 -14 -62 -15 -20
0 -40 -4 -43 -10 -3 -5 -30 -10 -60 -10 -30 0 -57 -5 -60 -10 -8 -13 -212 -13
-220 0 -3 6 -24 10 -45 10 -21 0 -42 5 -45 10 -3 6 -23 10 -44 10 -20 0 -46 7
-57 15 -10 8 -33 15 -51 15 -17 0 -35 5 -38 10 -3 6 -19 10 -35 10 -16 0 -32
5 -35 10 -3 6 -15 10 -25 10 -17 0 -66 18 -112 41 -10 5 -25 9 -33 9 -8 0 -23
4 -33 9 -9 5 -28 13 -42 19 -63 27 -107 45 -125 52 -58 23 -95 42 -100 50 -3
6 -15 10 -26 10 -10 0 -19 5 -19 10 0 6 -8 10 -17 11 -10 0 -31 9 -48 19 -16
11 -46 27 -65 37 -19 9 -37 19 -40 22 -9 10 -43 30 -82 48 -21 10 -38 21 -38
25 0 5 -4 8 -10 8 -9 0 -279 185 -290 199 -3 3 -23 19 -45 36 -22 16 -42 32
-45 35 -3 3 -39 35 -80 70 -125 108 -369 361 -419 434 -8 12 -34 44 -58 72
-24 28 -43 56 -43 61 0 5 -9 18 -20 28 -10 9 -38 47 -62 84 -24 36 -46 68 -50
69 -5 2 -8 8 -8 13 0 12 -52 93 -62 97 -5 2 -8 10 -8 19 0 8 -8 27 -17 41 -31
47 -42 66 -68 122 -15 30 -31 62 -36 70 -5 8 -12 23 -15 33 -4 9 -10 17 -15
17 -5 0 -9 11 -9 25 0 14 -4 25 -10 25 -5 0 -10 7 -10 14 0 8 -11 36 -25 62
-14 26 -25 55 -25 65 0 11 -4 19 -10 19 -5 0 -10 9 -10 20 0 20 -2 27 -33 88
-9 19 -17 45 -17 58 0 13 -4 24 -10 24 -5 0 -10 13 -10 29 0 17 -4 33 -10 36
-5 3 -10 19 -10 34 0 15 -7 36 -15 47 -8 10 -15 33 -15 51 0 17 -4 34 -9 37
-5 3 -12 23 -15 43 -4 21 -12 63 -18 93 -18 90 -9 545 10 525 3 -2 9 -26 14
-52z m5945 -420 c-3 -10 -5 -2 -5 17 0 19 2 27 5 18 2 -10 2 -26 0 -35z m-21
-182 c-11 -139 -42 -319 -57 -335 -5 -6 -9 -29 -9 -53 0 -24 -4 -43 -10 -43
-5 0 -10 -12 -10 -27 0 -30 -16 -85 -36 -126 -8 -16 -14 -40 -14 -53 0 -13 -4
-24 -10 -24 -5 0 -10 -11 -10 -25 0 -14 -4 -33 -9 -43 -5 -9 -17 -35 -26 -57
-9 -22 -20 -48 -25 -57 -6 -10 -10 -25 -10 -33 0 -8 -4 -15 -10 -15 -5 0 -10
-11 -10 -25 0 -14 -4 -25 -10 -25 -5 0 -10 -8 -10 -19 0 -10 -7 -24 -15 -31
-8 -7 -15 -16 -15 -21 0 -15 -43 -103 -57 -117 -7 -7 -13 -20 -13 -28 0 -8 -3
-14 -8 -14 -4 0 -14 -15 -21 -32 -8 -18 -30 -54 -48 -79 -18 -26 -33 -51 -33
-57 0 -6 -3 -12 -7 -14 -5 -1 -21 -23 -37 -47 -16 -25 -33 -50 -38 -55 -4 -6
-35 -46 -69 -89 -153 -198 -396 -433 -579 -562 -30 -21 -56 -42 -58 -47 -2 -4
-8 -8 -14 -8 -6 0 -32 -16 -58 -35 -26 -19 -53 -35 -59 -35 -6 0 -11 -3 -11
-8 0 -7 -4 -10 -77 -46 -21 -11 -40 -22 -43 -25 -5 -6 -17 -13 -75 -43 -36
-19 -181 -86 -212 -99 -13 -5 -35 -14 -50 -20 -16 -6 -41 -17 -56 -25 -16 -8
-37 -14 -47 -14 -10 0 -22 -4 -25 -10 -3 -5 -17 -10 -31 -10 -13 0 -32 -4 -42
-9 -32 -16 -87 -33 -120 -38 -18 -3 -35 -9 -38 -14 -3 -5 -23 -9 -44 -9 -21 0
-42 -4 -45 -10 -3 -5 -24 -10 -46 -10 -22 0 -50 -5 -62 -12 -31 -17 -137 -29
-310 -34 -103 -4 -147 -2 -142 5 3 6 28 11 55 11 27 0 52 5 55 10 3 6 24 10
45 10 21 0 42 5 45 10 3 6 18 10 33 10 15 0 40 7 56 15 15 8 39 15 52 15 12 0
26 5 29 10 3 6 19 10 35 10 16 0 32 5 35 10 3 6 16 10 29 10 12 0 31 7 42 15
10 8 27 15 37 15 17 0 27 4 74 28 13 7 31 12 42 12 10 0 24 7 31 15 7 8 19 15
26 15 8 0 22 4 32 9 15 8 38 18 82 35 8 4 29 15 45 25 17 11 38 20 48 20 9 1
17 6 17 11 0 6 8 10 19 10 10 0 23 6 29 13 6 7 27 19 47 27 19 7 35 17 35 22
0 4 9 8 20 8 11 0 20 3 20 8 0 4 17 16 38 27 50 25 311 198 339 224 12 12 26
21 32 21 5 0 11 3 13 8 2 4 21 22 43 40 22 19 60 50 84 70 128 108 253 230
366 357 39 44 79 89 90 101 11 12 29 34 40 49 11 16 26 34 32 41 17 17 203
283 203 291 0 3 16 28 35 54 19 27 35 55 35 63 0 8 3 16 8 18 8 4 24 33 97
178 75 149 108 222 135 300 12 34 34 87 51 122 5 10 9 29 9 42 0 14 5 28 10
31 6 3 10 16 10 29 0 12 4 26 9 31 10 10 29 77 38 133 3 18 9 35 14 38 5 3 9
23 9 44 0 21 3 47 8 57 10 26 15 -34 8 -116z m-5886 -324 c0 -18 -2 -19 -10
-7 -13 20 -13 43 0 35 6 -3 10 -16 10 -28z m30 -82 c0 -13 5 -27 10 -30 6 -3
10 -17 10 -30 0 -13 5 -27 10 -30 6 -3 10 -15 10 -25 0 -10 3 -20 8 -22 7 -3
25 -39 52 -103 7 -16 16 -37 21 -45 15 -27 92 -175 103 -197 6 -13 14 -23 19
-23 4 0 7 -7 7 -16 0 -8 11 -30 25 -48 14 -18 25 -38 25 -44 0 -7 5 -12 10
-12 6 0 10 -5 10 -12 0 -6 11 -26 25 -44 14 -18 25 -37 25 -43 0 -6 3 -11 8
-11 4 0 20 -21 37 -48 16 -26 32 -49 35 -52 3 -3 18 -23 35 -45 16 -22 31 -42
35 -45 3 -3 18 -23 35 -45 16 -22 32 -42 35 -45 3 -3 53 -59 111 -125 106
-120 175 -188 303 -300 38 -33 74 -65 80 -70 6 -6 29 -24 51 -40 22 -17 42
-33 45 -36 3 -3 39 -30 80 -59 41 -29 77 -57 78 -62 2 -4 8 -8 14 -8 6 0 32
-16 58 -35 26 -19 53 -35 59 -35 6 0 11 -3 11 -7 0 -5 18 -17 40 -27 22 -11
40 -23 40 -28 0 -4 9 -8 20 -8 11 0 20 -3 20 -7 0 -5 10 -13 23 -19 22 -11
170 -88 197 -103 8 -5 26 -13 40 -19 14 -5 52 -22 85 -37 33 -15 71 -32 85
-37 14 -6 33 -14 42 -19 10 -5 26 -9 37 -9 10 0 24 -7 31 -15 7 -8 23 -15 36
-15 12 0 26 -4 29 -10 3 -5 19 -10 35 -10 16 0 32 -4 35 -10 3 -5 16 -10 29
-10 12 0 26 -4 32 -9 10 -11 77 -29 134 -38 19 -3 43 -11 53 -18 26 -18 -148
-7 -185 11 -15 8 -45 14 -67 14 -22 0 -43 5 -46 10 -3 6 -24 10 -45 10 -21 0
-42 5 -45 10 -3 6 -18 10 -33 10 -15 1 -38 7 -52 15 -14 8 -37 14 -52 15 -16
0 -28 5 -28 10 0 6 -13 10 -29 10 -17 0 -33 5 -36 10 -3 6 -15 10 -25 10 -10
0 -31 6 -47 14 -26 13 -44 21 -105 45 -13 5 -47 20 -76 35 -30 14 -60 26 -68
26 -8 0 -14 5 -14 10 0 6 -7 10 -15 10 -9 0 -32 10 -53 23 -20 12 -50 29 -67
37 -16 8 -32 17 -35 20 -10 10 -45 31 -62 36 -10 4 -18 10 -18 15 0 5 -5 9
-12 9 -6 0 -26 11 -44 25 -18 14 -37 25 -43 25 -6 0 -11 5 -11 10 0 6 -7 10
-15 10 -8 0 -15 5 -15 10 0 6 -7 10 -15 10 -8 0 -15 4 -15 9 0 5 -16 19 -35
31 -175 108 -532 474 -671 686 -22 32 -42 61 -46 62 -5 2 -8 10 -8 18 0 8 -4
14 -10 14 -5 0 -10 5 -10 11 0 6 -11 25 -24 42 -13 18 -29 47 -37 65 -8 17
-17 32 -20 32 -4 0 -10 11 -13 25 -4 14 -11 25 -16 25 -6 0 -10 9 -10 20 0 11
-4 20 -10 20 -5 0 -10 9 -10 19 0 11 -3 21 -7 23 -11 4 -43 67 -43 84 0 8 -4
14 -10 14 -5 0 -10 11 -10 25 0 14 -4 25 -10 25 -5 0 -10 7 -10 15 0 8 -4 23
-10 33 -5 9 -16 35 -25 57 -9 22 -21 48 -26 57 -5 10 -9 29 -9 43 0 14 -4 25
-10 25 -5 0 -10 13 -10 29 0 16 -6 34 -14 40 -8 6 -17 27 -20 46 -3 19 -9 51
-12 70 -3 19 -10 38 -15 41 -5 3 -9 19 -9 35 0 18 4 28 10 24 6 -3 10 -17 10
-30z m2150 -2255 c0 -6 -11 -8 -27 -4 -40 10 -41 14 -5 14 18 0 32 -5 32 -10z
m1440 -20 c-8 -5 -31 -10 -50 -10 -26 0 -31 3 -20 10 8 5 31 10 50 10 26 0 31
-3 20 -10z"/>
</g>
</svg>
